<svg width="1440" height="1453" viewBox="0 0 1440 1453" fill="none" xmlns="http://www.w3.org/2000/svg">
<rect x="1" width="1439" height="1453" fill="white"/>
<path d="M-270.949 377.826L45.8825 35.7579C64.2025 15.9786 95.0595 14.7144 114.936 32.9288L224.621 133.441C245.193 152.292 245.892 184.493 226.159 204.22L54.9348 375.389C34.8844 395.433 35.9773 428.258 57.3165 446.924L224.607 593.257C245.315 611.37 247.055 642.977 228.462 663.254L128.859 771.877C110.009 792.434 77.8259 793.134 58.1008 773.415L-269.643 445.777C-288.268 427.158 -288.845 397.147 -270.949 377.826Z" fill="#45B54A" fill-opacity="0.06"/>
<path d="M688.949 646.174L372.117 988.242C353.797 1008.02 322.94 1009.29 303.064 991.071L193.379 890.559C172.807 871.708 172.108 839.507 191.841 819.78L363.065 648.611C383.116 628.567 382.023 595.742 360.683 577.076L193.393 430.743C172.685 412.63 170.945 381.023 189.538 360.746L289.141 252.123C307.991 231.566 340.174 230.866 359.899 250.585L687.643 578.223C706.268 596.842 706.845 626.853 688.949 646.174Z" fill="#45B54A" fill-opacity="0.06"/>
<path d="M1055.05 1148.18L1230.5 958.758C1248.82 938.979 1279.67 937.714 1299.55 955.929L1341.37 994.251C1361.94 1013.1 1362.64 1045.3 1342.91 1065.03L1262.17 1145.74C1242.12 1165.79 1243.21 1198.61 1264.55 1217.28L1341.36 1284.46C1362.06 1302.57 1363.8 1334.18 1345.21 1354.46L1307.82 1395.24C1288.97 1415.79 1256.78 1416.49 1237.06 1396.77L1056.36 1216.13C1037.73 1197.51 1037.16 1167.5 1055.05 1148.18Z" fill="#45B54A" fill-opacity="0.12"/>
<path d="M1635.95 1342.82L1460.5 1532.24C1442.18 1552.02 1411.33 1553.29 1391.45 1535.07L1349.63 1496.75C1329.06 1477.9 1328.36 1445.7 1348.09 1425.97L1428.83 1345.26C1448.88 1325.21 1447.79 1292.39 1426.45 1273.72L1349.64 1206.54C1328.94 1188.43 1327.2 1156.82 1345.79 1136.54L1383.18 1095.76C1402.03 1075.21 1434.22 1074.51 1453.94 1094.23L1634.64 1274.87C1653.27 1293.49 1653.84 1323.5 1635.95 1342.82Z" fill="#45B54A" fill-opacity="0.12"/>
<path d="M752.051 221.283L1102.85 -157.456C1121.45 -177.541 1152.9 -178.487 1172.68 -159.557L1284.6 -52.4315C1303.75 -34.0943 1304.85 -3.84387 1287.06 15.8275L1101.81 220.729C1084.09 240.332 1085.1 270.459 1104.11 288.825L1297.91 476.117C1317.7 495.245 1317.86 526.918 1298.26 546.243L1188 654.955C1168.83 673.859 1138 673.753 1118.96 654.717L753.357 289.234C734.732 270.615 734.155 240.604 752.051 221.283Z" fill="#45B54A" fill-opacity="0.21"/>
<path d="M1804.95 507.717L1453.42 887.242C1435.1 907.021 1404.25 908.286 1384.37 890.071L1258.03 774.299C1237.46 755.447 1236.76 723.247 1256.49 703.519L1449.92 510.154C1469.97 490.11 1468.88 457.284 1447.54 438.619L1258.05 272.864C1237.34 254.751 1235.6 223.144 1254.19 202.866L1369.06 77.5958C1387.91 57.0389 1420.09 56.3396 1439.82 76.0584L1803.64 439.766C1822.27 458.385 1822.84 488.396 1804.95 507.717Z" fill="#45B54A" fill-opacity="0.21"/>
</svg>
