<svg width="1440" height="1453" viewBox="0 0 1440 1453" fill="none" xmlns="http://www.w3.org/2000/svg">
<rect x="1" width="1439" height="1453" fill="#F4FCF5"/>
<path d="M-301.692 411.018L77.6505 1.45951C78.3982 0.652188 79.6577 0.600584 80.469 1.34403L260.823 166.615C261.663 167.385 261.691 168.699 260.886 169.504L19.3943 410.918C18.5759 411.736 18.6205 413.076 19.4915 413.838L260.822 624.935C261.668 625.674 261.739 626.964 260.98 627.792L95.6937 808.046C94.9243 808.885 93.6107 808.913 92.8056 808.109L-301.638 413.791C-302.399 413.031 -302.422 411.806 -301.692 411.018Z" fill="#45B54A" fill-opacity="0.06"/>
<path d="M719.692 612.982L340.349 1022.54C339.602 1023.35 338.342 1023.4 337.531 1022.66L157.177 857.385C156.337 856.615 156.309 855.301 157.114 854.496L398.606 613.082C399.424 612.264 399.379 610.924 398.508 610.162L157.178 399.065C156.332 398.326 156.261 397.036 157.02 396.208L322.306 215.954C323.076 215.115 324.389 215.087 325.194 215.891L719.639 610.209C720.399 610.969 720.422 612.194 719.692 612.982Z" fill="#45B54A" fill-opacity="0.06"/>
<path d="M1024.31 1181.37L1262.26 924.46C1263.01 923.652 1264.27 923.601 1265.08 924.344L1377.57 1027.43C1378.41 1028.2 1378.44 1029.51 1377.63 1030.31L1226.63 1181.27C1225.81 1182.09 1225.86 1183.43 1226.73 1184.19L1377.57 1316.14C1378.42 1316.88 1378.49 1318.17 1377.73 1318.99L1274.65 1431.4C1273.88 1432.24 1272.57 1432.27 1271.76 1431.47L1024.36 1184.14C1023.6 1183.38 1023.58 1182.16 1024.31 1181.37Z" fill="#45B54A" fill-opacity="0.12"/>
<path d="M1666.69 1309.63L1428.74 1566.54C1427.99 1567.35 1426.73 1567.4 1425.92 1566.66L1313.43 1463.57C1312.59 1462.8 1312.56 1461.49 1313.37 1460.69L1464.37 1309.73C1465.19 1308.91 1465.14 1307.57 1464.27 1306.81L1313.43 1174.86C1312.58 1174.12 1312.51 1172.83 1313.27 1172.01L1416.35 1059.6C1417.12 1058.76 1418.43 1058.73 1419.24 1059.53L1666.64 1306.86C1667.4 1307.62 1667.42 1308.84 1666.69 1309.63Z" fill="#45B54A" fill-opacity="0.12"/>
<path d="M721.308 254.475L1135.31 -192.508C1136.07 -193.328 1137.36 -193.367 1138.16 -192.594L1317.6 -20.8441C1318.38 -20.0957 1318.42 -18.861 1317.7 -18.0581L1071.32 254.452C1070.6 255.252 1070.64 256.482 1071.42 257.231L1332.53 509.576C1333.33 510.357 1333.34 511.65 1332.54 512.438L1154.78 687.718C1154 688.489 1152.74 688.485 1151.96 687.708L721.362 257.248C720.601 256.488 720.578 255.263 721.308 254.475Z" fill="#45B54A" fill-opacity="0.21"/>
<path d="M1835.69 474.525L1421.66 921.54C1420.91 922.348 1419.65 922.399 1418.84 921.656L1221.83 741.124C1220.99 740.355 1220.96 739.041 1221.77 738.235L1485.46 474.625C1486.28 473.807 1486.24 472.467 1485.37 471.705L1221.83 241.186C1220.99 240.447 1220.91 239.157 1221.67 238.329L1402.23 41.4275C1402.99 40.5884 1404.31 40.5598 1405.11 41.3647L1835.64 471.752C1836.4 472.512 1836.42 473.737 1835.69 474.525Z" fill="#45B54A" fill-opacity="0.21"/>
</svg>
