<?xml version="1.0" encoding="iso-8859-1"?>
<!-- Generator: Adobe Illustrator 19.0.0, SVG Export Plug-In . SVG Version: 6.00 Build 0)  -->
<svg version="1.1" id="Capa_1" xmlns="http://www.w3.org/2000/svg" xmlns:xlink="http://www.w3.org/1999/xlink" x="0px" y="0px"
	 viewBox="0 0 512 512" style="enable-background:new 0 0 512 512;" xml:space="preserve">
<g>
	<g>
		<path d="M487.325,74.024H24.675C11.103,74.024,0,85.127,0,98.698v314.603c0,13.571,11.103,24.675,24.675,24.675h462.65
			c13.571,0,24.675-11.103,24.675-24.675V98.698C512,85.127,500.897,74.024,487.325,74.024z M18.506,98.698
			c0-3.343,2.825-6.168,6.168-6.168h462.65c3.343,0,6.168,2.825,6.168,6.168v30.843H18.506V98.698z M493.495,413.301
			c-0.001,3.343-2.825,6.168-6.17,6.168H24.675c-3.343,0-6.168-2.825-6.168-6.168V222.072h474.988V413.301z M493.495,203.566H18.506
			v-55.518h474.988V203.566z"/>
	</g>
</g>
<g>
	<g>
		<path d="M416.385,283.758c-14.453,0-27.531,5.848-37.012,15.299c-9.487-9.451-22.566-15.299-37.012-15.299
			c-28.962,0-52.433,23.478-52.433,52.433c0,28.95,23.472,52.433,52.433,52.433c14.447,0,27.525-5.848,37.012-15.299
			c9.482,9.451,22.559,15.299,37.012,15.299c28.95,0,52.433-23.484,52.433-52.433C468.82,307.236,445.335,283.758,416.385,283.758z
			 M416.385,370.12c-9.037,0-17.543-3.516-23.947-9.901c-3.615-3.597-8.34-5.398-13.065-5.398c-4.725,0-9.451,1.801-13.06,5.398
			c-6.409,6.385-14.922,9.901-23.953,9.901c-18.709,0-33.928-15.218-33.928-33.928c0-18.71,15.218-33.928,33.928-33.928
			c9.03,0,17.543,3.516,23.953,9.901c3.609,3.602,8.34,5.398,13.06,5.398c4.732,0,9.451-1.801,13.065-5.398
			c6.403-6.385,14.91-9.901,23.947-9.901c18.709,0,33.928,15.218,33.928,33.928C450.313,354.902,435.095,370.12,416.385,370.12z"/>
	</g>
</g>
<g>
	<g>
		<path d="M203.566,302.265H55.518c-5.108,0-9.253,4.146-9.253,9.253s4.146,9.253,9.253,9.253h148.048
			c5.108,0,9.253-4.146,9.253-9.253C212.819,306.409,208.674,302.265,203.566,302.265z"/>
	</g>
</g>
<g>
	<g>
		<path d="M123.385,345.445H55.518c-5.108,0-9.253,4.146-9.253,9.253s4.146,9.253,9.253,9.253h67.868
			c5.108,0,9.253-4.146,9.253-9.253S128.493,345.445,123.385,345.445z"/>
	</g>
</g>
<g>
</g>
<g>
</g>
<g>
</g>
<g>
</g>
<g>
</g>
<g>
</g>
<g>
</g>
<g>
</g>
<g>
</g>
<g>
</g>
<g>
</g>
<g>
</g>
<g>
</g>
<g>
</g>
<g>
</g>
</svg>
