<svg width="19" height="20" viewBox="0 0 19 20" fill="none" xmlns="http://www.w3.org/2000/svg">
<path d="M13.367 10.906V9.26904C13.3655 8.13148 12.9987 7.02449 12.3207 6.11104C11.6427 5.19759 10.6894 4.52596 9.60103 4.19504V3.45404C9.60103 3.04587 9.43888 2.65442 9.15027 2.3658C8.86165 2.07718 8.4702 1.91504 8.06203 1.91504C7.65386 1.91504 7.26241 2.07718 6.97379 2.3658C6.68517 2.65442 6.52303 3.04587 6.52303 3.45404V4.19504C5.43522 4.52649 4.48253 5.19835 3.80513 6.11175C3.12773 7.02515 2.7614 8.13186 2.76003 9.26904V10.906C2.76344 12.994 1.95604 15.0017 0.508029 16.506C0.438474 16.5786 0.391765 16.67 0.373706 16.7689C0.355646 16.8677 0.36703 16.9697 0.406443 17.0622C0.445856 17.1547 0.511562 17.2335 0.5954 17.2889C0.679239 17.3444 0.777517 17.374 0.878028 17.374H5.54703C5.66547 17.9534 5.98036 18.474 6.43845 18.8479C6.89654 19.2218 7.46971 19.4261 8.06103 19.4261C8.65235 19.4261 9.22552 19.2218 9.68361 18.8479C10.1417 18.474 10.4566 17.9534 10.575 17.374H15.244C15.3445 17.374 15.4428 17.3444 15.5267 17.2889C15.6105 17.2335 15.6762 17.1547 15.7156 17.0622C15.755 16.9697 15.7664 16.8677 15.7483 16.7689C15.7303 16.67 15.6836 16.5786 15.614 16.506C14.1678 15.001 13.3623 12.9933 13.367 10.906ZM7.54903 3.45404C7.54903 3.31798 7.60307 3.1875 7.69928 3.09129C7.79549 2.99509 7.92597 2.94104 8.06203 2.94104C8.19808 2.94104 8.32857 2.99509 8.42478 3.09129C8.52098 3.1875 8.57503 3.31798 8.57503 3.45404V3.99204C8.40603 3.97604 8.23503 3.96704 8.06203 3.96704C7.88903 3.96704 7.71803 3.97604 7.54903 3.99204V3.45404ZM8.06203 18.402C7.74387 18.4016 7.43364 18.3028 7.17386 18.1191C6.91409 17.9354 6.71749 17.6759 6.61103 17.376H9.51103C9.40468 17.6755 9.20839 17.9348 8.94901 18.1185C8.68963 18.3022 8.37984 18.4012 8.06203 18.402ZM1.98503 16.35C3.1576 14.778 3.78914 12.8682 3.78503 10.907V9.26904C3.77636 8.70207 3.88054 8.13904 4.09151 7.61271C4.30248 7.08639 4.61603 6.60728 5.01391 6.20327C5.41179 5.79926 5.88604 5.47842 6.40908 5.25943C6.93212 5.04043 7.49349 4.92765 8.06053 4.92765C8.62756 4.92765 9.18893 5.04043 9.71197 5.25943C10.235 5.47842 10.7093 5.79926 11.1071 6.20327C11.505 6.60728 11.8186 7.08639 12.0295 7.61271C12.2405 8.13904 12.3447 8.70207 12.336 9.26904V10.906C12.3319 12.8672 12.9635 14.777 14.136 16.349L1.98503 16.35Z" fill="#45B54A"/>
<path d="M14.7361 9.27009C14.7361 9.40615 14.7901 9.53663 14.8863 9.63284C14.9825 9.72905 15.113 9.78309 15.2491 9.78309C15.3851 9.78309 15.5156 9.72905 15.6118 9.63284C15.708 9.53663 15.7621 9.40615 15.7621 9.27009C15.7649 8.25902 15.567 7.25745 15.1801 6.32333C14.7932 5.38921 14.2249 4.5411 13.5081 3.82809C13.4118 3.73182 13.2812 3.67773 13.1451 3.67773C13.0089 3.67773 12.8783 3.73182 12.7821 3.82809C12.6858 3.92437 12.6317 4.05494 12.6317 4.19109C12.6317 4.32724 12.6858 4.45782 12.7821 4.55409C13.4034 5.17196 13.896 5.9069 14.2314 6.7164C14.5668 7.5259 14.7383 8.39387 14.7361 9.27009Z" fill="#45B54A"/>
<path d="M0.878996 9.78212C1.01505 9.78212 1.14554 9.72807 1.24174 9.63186C1.33795 9.53566 1.392 9.40517 1.392 9.26912C1.38975 8.39289 1.56128 7.52492 1.89668 6.71542C2.23209 5.90593 2.72469 5.17098 3.34599 4.55312C3.39366 4.50545 3.43148 4.44885 3.45728 4.38657C3.48308 4.32429 3.49636 4.25753 3.49636 4.19012C3.49636 4.1227 3.48308 4.05595 3.45728 3.99366C3.43148 3.93138 3.39366 3.87479 3.34599 3.82712C3.29833 3.77945 3.24173 3.74163 3.17945 3.71584C3.11717 3.69004 3.05041 3.67676 2.983 3.67676C2.91558 3.67676 2.84883 3.69004 2.78654 3.71584C2.72426 3.74163 2.66767 3.77945 2.62 3.82712C1.90314 4.54013 1.33481 5.38824 0.947914 6.32235C0.561016 7.25647 0.363227 8.25805 0.365995 9.26912C0.365995 9.40517 0.420043 9.53566 0.516249 9.63186C0.612455 9.72807 0.74294 9.78212 0.878996 9.78212Z" fill="#45B54A"/>
<path d="M17 4C18.1046 4 19 3.10457 19 2C19 0.89543 18.1046 0 17 0C15.8954 0 15 0.89543 15 2C15 3.10457 15.8954 4 17 4Z" fill="#FF7043"/>
</svg>
