<svg width="500" height="500" viewBox="0 0 500 500" fill="none" xmlns="http://www.w3.org/2000/svg">
<path d="M108.29 238.49C102.996 245.608 95.7087 250.996 87.3511 253.971C78.9936 256.945 69.9413 257.374 61.3402 255.201C52.7391 253.029 44.9759 248.353 39.0333 241.767C33.0907 235.18 29.2358 226.978 27.9568 218.2C26.6777 209.421 28.0318 200.461 31.8478 192.452C35.6638 184.444 41.7701 177.747 49.3937 173.211C57.0172 168.675 65.8153 166.502 74.6743 166.968C83.5332 167.434 92.0547 170.518 99.16 175.83C108.679 182.929 114.988 193.519 116.7 205.269C118.412 217.02 115.387 228.97 108.29 238.49V238.49Z" fill="#EBEBEB"/>
<path d="M99.75 232.1C95.7199 237.526 90.1705 241.635 83.8044 243.906C77.4382 246.177 70.5413 246.509 63.9867 244.858C57.432 243.208 51.5143 239.651 46.9823 234.636C42.4504 229.621 39.508 223.375 38.5277 216.687C37.5473 209.999 38.5729 203.171 41.4748 197.066C44.3766 190.962 49.0243 185.855 54.8295 182.393C60.6347 178.931 67.3365 177.269 74.0867 177.617C80.8368 177.966 87.332 180.309 92.75 184.35C96.3455 187.025 99.3788 190.383 101.677 194.23C103.974 198.078 105.491 202.341 106.142 206.775C106.792 211.209 106.562 215.728 105.465 220.073C104.368 224.419 102.426 228.505 99.75 232.1V232.1Z" fill="#F5F5F5"/>
<path d="M100.38 231.24C100.21 231.12 100.99 229.84 102.12 227.41C103.708 224.013 104.758 220.39 105.23 216.67C105.929 211.185 105.273 205.613 103.32 200.44C102.759 198.956 102.091 197.516 101.32 196.13C100.536 194.687 99.6438 193.307 98.6499 192C97.6171 190.641 96.4804 189.363 95.2499 188.18C92.7151 185.737 89.809 183.712 86.6399 182.18C83.6147 180.706 80.3854 179.695 77.0599 179.18C75.4948 178.937 73.9138 178.81 72.3299 178.8C69.3926 178.762 66.4624 179.098 63.6099 179.8C61.1248 180.443 58.7173 181.355 56.4299 182.52C53.1059 184.244 50.0698 186.474 47.4299 189.13C45.5399 191.02 44.5999 192.2 44.4299 192.13C44.2599 192.06 44.9599 190.66 46.6699 188.5C49.1375 185.452 52.1525 182.891 55.5599 180.95C60.6688 178.015 66.4483 176.448 72.3399 176.4C75.8267 176.362 79.2992 176.851 82.6399 177.85C84.4057 178.383 86.1275 179.051 87.7899 179.85C89.4959 180.683 91.1371 181.642 92.6999 182.72C94.2493 183.818 95.7135 185.031 97.0799 186.35C98.4021 187.637 99.6194 189.028 100.72 190.51C102.8 193.303 104.445 196.394 105.6 199.68C107.581 205.228 108.091 211.196 107.08 217C106.437 220.866 105.08 224.579 103.08 227.95C101.58 230.24 100.51 231.33 100.38 231.24Z" fill="#E0E0E0"/>
<path d="M63.2799 230.29L59.7899 235.1L55.4899 232L58.8899 227.32C54.8199 223.97 51.6999 219.68 50.6799 216.11L56.8499 212.58C58.066 216.095 60.1791 219.232 62.9799 221.68L68.1899 214.5C64.2499 209.88 60.0699 204.42 64.5299 198.27C67.8399 193.71 73.9899 192.2 81.3499 196.35L84.8099 191.58L89.1099 194.7L85.7099 199.38C88.6667 201.797 91.0076 204.882 92.5399 208.38L86.5399 212.11C85.3578 209.466 83.6576 207.086 81.5399 205.11L76.2399 212.42C80.2399 217 84.2999 222.42 79.8999 228.42C76.7099 232.87 70.6299 234.37 63.2799 230.29ZM72.7699 208.16L77.1999 202.05C74.5499 200.91 72.7399 201.51 71.7099 202.93C70.6799 204.35 71.3099 206.18 72.7699 208.16ZM72.6499 223.89C73.7399 222.38 73.0899 220.66 71.7099 218.67L67.3999 224.61C69.8999 225.7 71.6499 225.26 72.6499 223.89V223.89Z" fill="#E0E0E0"/>
<path d="M377.48 365.82C372.886 371.997 366.563 376.671 359.311 379.253C352.058 381.834 344.203 382.205 336.74 380.32C329.277 378.435 322.54 374.378 317.384 368.662C312.227 362.947 308.883 355.83 307.773 348.212C306.663 340.595 307.839 332.819 311.15 325.87C314.462 318.921 319.761 313.111 326.376 309.175C332.992 305.239 340.626 303.354 348.313 303.759C356.001 304.164 363.395 306.84 369.56 311.45C377.818 317.611 383.292 326.799 384.777 336.995C386.262 347.191 383.637 357.559 377.48 365.82V365.82Z" fill="#EBEBEB"/>
<path d="M370.07 360.28C366.565 364.982 361.744 368.539 356.216 370.5C350.689 372.461 344.704 372.739 339.019 371.297C333.334 369.855 328.205 366.759 324.28 362.401C320.355 358.043 317.812 352.618 316.971 346.814C316.131 341.009 317.031 335.086 319.559 329.793C322.086 324.501 326.127 320.077 331.169 317.082C336.212 314.087 342.03 312.656 347.886 312.969C353.743 313.281 359.375 315.325 364.07 318.84C370.36 323.54 374.526 330.546 375.652 338.317C376.777 346.089 374.769 353.989 370.07 360.28V360.28Z" fill="#F5F5F5"/>
<path d="M370.62 359.53C370.47 359.42 371.15 358.31 372.12 356.2C373.499 353.253 374.41 350.108 374.82 346.88C375.094 344.67 375.121 342.436 374.9 340.22C374.644 337.682 374.059 335.188 373.16 332.8C372.682 331.512 372.107 330.261 371.44 329.06C370.758 327.801 369.979 326.598 369.11 325.46C368.211 324.281 367.225 323.171 366.16 322.14C365.054 321.088 363.874 320.115 362.63 319.23C361.375 318.362 360.058 317.587 358.69 316.91C356.066 315.635 353.264 314.762 350.38 314.32C349.02 314.108 347.646 313.997 346.27 313.99C343.722 313.967 341.181 314.269 338.71 314.89C336.553 315.45 334.464 316.245 332.48 317.26C329.589 318.753 326.948 320.686 324.65 322.99C323.01 324.63 322.19 325.65 322.05 325.54C321.91 325.43 322.51 324.27 323.99 322.4C326.134 319.756 328.752 317.534 331.71 315.85C333.759 314.673 335.941 313.743 338.21 313.08C340.831 312.324 343.542 311.927 346.27 311.9C347.745 311.88 349.219 311.974 350.68 312.18C352.211 312.393 353.722 312.727 355.2 313.18C356.732 313.64 358.227 314.219 359.67 314.91C362.641 316.347 365.362 318.252 367.73 320.55C368.874 321.671 369.93 322.878 370.89 324.16C371.813 325.396 372.635 326.703 373.35 328.07C374.044 329.356 374.639 330.693 375.13 332.07C376.037 334.65 376.592 337.341 376.78 340.07C376.938 342.43 376.814 344.8 376.41 347.13C375.84 350.487 374.65 353.709 372.9 356.63C371.65 358.66 370.72 359.6 370.62 359.53Z" fill="#E0E0E0"/>
<path d="M338.43 358.7L335.43 362.88L331.69 360.17L334.64 356.1C331.11 353.2 328.41 349.47 327.52 346.38L332.87 343.32C333.931 346.369 335.764 349.09 338.19 351.22L342.71 344.98C339.3 340.98 335.71 336.24 339.54 330.9C342.41 326.9 347.75 325.63 354.13 329.24L357.13 325.09L360.86 327.8L357.91 331.87C360.476 333.952 362.508 336.616 363.84 339.64L358.64 342.87C357.629 340.575 356.167 338.508 354.34 336.79L349.74 343.14C353.18 347.14 356.74 351.79 352.92 357.05C350.07 360.94 344.8 362.24 338.43 358.7ZM346.66 339.5L350.5 334.2C348.2 333.2 346.63 333.73 345.73 334.96C344.83 336.19 345.39 337.79 346.66 339.5ZM346.55 353.15C347.5 351.84 346.93 350.35 345.73 348.62L342 353.77C344.16 354.72 345.69 354.34 346.55 353.15Z" fill="#E0E0E0"/>
<path d="M142.3 98.5399C141.39 103.513 139.025 108.105 135.504 111.734C131.983 115.362 127.464 117.865 122.52 118.924C117.577 119.983 112.43 119.552 107.731 117.684C103.032 115.817 98.9934 112.598 96.1254 108.434C93.2575 104.27 91.6894 99.3485 91.6197 94.2929C91.5501 89.2373 92.9819 84.2747 95.7341 80.0333C98.4863 75.7919 102.435 72.4624 107.08 70.4663C111.726 68.4702 116.859 67.8972 121.83 68.8199C128.485 70.0471 134.381 73.8676 138.219 79.441C142.058 85.0144 143.526 91.8844 142.3 98.5399V98.5399Z" fill="#EBEBEB"/>
<path d="M136.32 97.4299C135.626 101.22 133.822 104.719 131.139 107.483C128.455 110.248 125.011 112.154 121.243 112.96C117.475 113.767 113.553 113.437 109.973 112.013C106.392 110.589 103.315 108.134 101.131 104.96C98.946 101.787 97.7523 98.0358 97.7005 94.183C97.6487 90.3303 98.7413 86.5488 100.84 83.3173C102.938 80.0859 105.948 77.5497 109.489 76.0299C113.03 74.5102 116.942 74.0751 120.73 74.7799C123.241 75.2431 125.636 76.1964 127.779 77.5855C129.921 78.9745 131.769 80.772 133.217 82.8754C134.665 84.9787 135.684 87.3467 136.216 89.844C136.749 92.3413 136.784 94.919 136.32 97.4299Z" fill="#F5F5F5"/>
<path d="M136.43 96.8299C136.313 96.0354 136.287 95.2304 136.35 94.4299C136.303 92.2946 135.925 90.1795 135.23 88.1599C134.751 86.7605 134.117 85.4189 133.34 84.1599C132.454 82.7395 131.385 81.4417 130.16 80.2999C129.502 79.6802 128.8 79.1087 128.06 78.5899C127.291 78.0495 126.482 77.5681 125.64 77.1499C124.769 76.7165 123.866 76.3489 122.94 76.0499C121.984 75.7519 121.008 75.5213 120.02 75.3599C119.026 75.2178 118.024 75.1443 117.02 75.1399C116.045 75.1486 115.073 75.2289 114.11 75.3799C113.182 75.5269 112.266 75.7442 111.37 76.0299C110.509 76.2999 109.67 76.6342 108.86 77.0299C106.013 78.3998 103.546 80.4502 101.68 82.9999C100.393 84.7163 99.381 86.6224 98.68 88.6499C98.4976 89.4292 98.2328 90.1868 97.89 90.9099C97.7889 90.0961 97.8674 89.2701 98.12 88.4899C98.6168 86.3096 99.5154 84.241 100.77 82.3899C102.634 79.6002 105.191 77.3431 108.19 75.8399C109.057 75.3983 109.956 75.0238 110.88 74.7199C111.84 74.3983 112.822 74.1509 113.82 73.9799C114.858 73.8101 115.908 73.7165 116.96 73.6999C118.041 73.6971 119.12 73.774 120.19 73.9299C121.257 74.1007 122.31 74.3514 123.34 74.6799C124.339 75.0095 125.312 75.414 126.25 75.8899C127.156 76.3464 128.023 76.8783 128.84 77.4799C129.63 78.0414 130.372 78.6668 131.06 79.3499C132.339 80.6003 133.446 82.0162 134.35 83.5599C135.125 84.9081 135.742 86.3408 136.19 87.8299C136.825 89.9719 137.059 92.2129 136.88 94.4399C136.895 95.2589 136.742 96.0723 136.43 96.8299V96.8299Z" fill="#E0E0E0"/>
<path d="M117.22 105.69L116.65 109.04L113.65 108.53L114.2 105.27C111.571 104.732 109.146 103.468 107.2 101.62L109.46 98.26C110.97 99.7467 112.842 100.815 114.89 101.36L115.74 96.36C112.57 94.99 109.06 93.25 109.79 88.98C110.33 85.82 113.09 83.5 117.9 83.77L118.46 80.45L121.46 80.96L120.9 84.22C123.014 84.7038 124.985 85.6803 126.65 87.07L124.53 90.49C123.265 89.4342 121.804 88.6389 120.23 88.15L119.36 93.23C122.54 94.57 125.99 96.3 125.27 100.5C124.73 103.63 122 105.93 117.22 105.69ZM116.49 92L117.22 87.76C115.57 87.85 114.8 88.61 114.63 89.6C114.46 90.59 115.25 91.35 116.49 92ZM120.4 100.07C120.58 99.07 119.81 98.31 118.6 97.65L117.9 101.76C119.45 101.68 120.24 101 120.4 100.06V100.07Z" fill="#E0E0E0"/>
<path d="M472.62 442.88C472.62 443.03 380.13 443.15 266.07 443.15C152.01 443.15 59.51 443 59.51 442.88C59.51 442.76 151.97 442.62 266.07 442.62C380.17 442.62 472.62 442.74 472.62 442.88Z" fill="#263238"/>
<path d="M181.61 128.06C181.61 128.06 182.48 83.25 145.41 60.49H262.9C262.9 60.49 296.49 87.71 296.77 128.06H181.61Z" fill="#EBEBEB"/>
<path d="M253.94 76.8299C253.94 76.9799 240.52 77.0999 223.94 77.0999C207.36 77.0999 193.94 76.9799 193.94 76.8299C193.94 76.6799 207.36 76.5699 223.94 76.5699C240.52 76.5699 253.94 76.6899 253.94 76.8299Z" fill="#455A64"/>
<path d="M266.76 84.94C266.76 85.08 248.98 85.2 227.05 85.2C205.12 85.2 187.34 85.08 187.34 84.94C187.34 84.8 205.12 84.67 227.05 84.67C248.98 84.67 266.76 84.79 266.76 84.94Z" fill="#263238"/>
<path d="M273.44 105.44C273.44 105.58 255.66 105.7 233.73 105.7C211.8 105.7 194.01 105.58 194.01 105.44C194.01 105.3 211.79 105.18 233.73 105.18C255.67 105.18 273.44 105.3 273.44 105.44Z" fill="#263238"/>
<path d="M231.94 94.27C231.404 94.3529 230.862 94.3897 230.32 94.38L225.88 94.46C222.13 94.51 216.96 94.54 211.24 94.54C205.52 94.54 200.35 94.54 196.6 94.46L192.16 94.38C191.618 94.3897 191.076 94.3529 190.54 94.27C191.077 94.1946 191.618 94.1611 192.16 94.17L196.6 94.09C200.35 94.09 205.52 94.01 211.24 94.01C216.96 94.01 222.13 94.01 225.88 94.09L230.32 94.17C230.862 94.1611 231.403 94.1946 231.94 94.27V94.27Z" fill="#263238"/>
<path d="M266.76 94.27C266.366 94.3528 265.963 94.3897 265.56 94.38L262.28 94.46C259.52 94.51 255.69 94.54 251.47 94.54C247.25 94.54 243.42 94.54 240.66 94.46L237.38 94.38C236.977 94.3887 236.575 94.3518 236.18 94.27C236.576 94.1955 236.978 94.162 237.38 94.17L240.66 94.09C243.42 94.09 247.25 94.01 251.47 94.01C255.69 94.01 259.47 94.01 262.28 94.09L265.56 94.17C265.962 94.1611 266.365 94.1946 266.76 94.27V94.27Z" fill="#263238"/>
<path d="M239.31 116.43C238.771 116.513 238.225 116.549 237.68 116.54L233.25 116.62C229.5 116.62 224.32 116.7 218.61 116.7C212.9 116.7 207.71 116.7 203.96 116.62L199.53 116.54C198.985 116.549 198.439 116.513 197.9 116.43C198.44 116.355 198.985 116.322 199.53 116.33L203.96 116.25C207.71 116.25 212.89 116.17 218.61 116.17C224.33 116.17 229.5 116.17 233.25 116.25L237.68 116.33C238.225 116.322 238.77 116.355 239.31 116.43Z" fill="#263238"/>
<path d="M274.13 116.43C273.735 116.512 273.333 116.549 272.93 116.54L269.65 116.62C266.88 116.62 263.06 116.7 258.84 116.7C254.62 116.7 250.84 116.7 248.02 116.62L244.74 116.54C244.337 116.549 243.935 116.512 243.54 116.43C243.936 116.356 244.338 116.322 244.74 116.33L248.02 116.25C250.79 116.25 254.61 116.17 258.84 116.17C263.07 116.17 266.84 116.17 269.65 116.25L272.93 116.33C273.332 116.322 273.735 116.356 274.13 116.43V116.43Z" fill="#263238"/>
<path d="M157.59 126.79H330.93L340.37 427.09C340.434 429.148 340.084 431.197 339.341 433.116C338.597 435.036 337.474 436.786 336.04 438.263C334.607 439.74 332.89 440.913 330.993 441.713C329.097 442.513 327.059 442.924 325 442.92H144.78C142.234 442.921 139.784 441.942 137.94 440.186C136.095 438.431 134.996 436.033 134.87 433.49L126.54 263.92C126.54 263.92 75.1301 245.25 76.0001 188.32C76.0001 188.32 78.34 126.79 157.59 126.79Z" fill="#263238"/>
<path d="M167 442.46L159.44 126.79H337.22L340.43 429.18C340.486 430.962 340.184 432.736 339.54 434.398C338.896 436.06 337.924 437.576 336.682 438.854C335.44 440.132 333.953 441.148 332.31 441.839C330.668 442.531 328.902 442.885 327.12 442.88L167 442.46Z" fill="#455A64"/>
<path d="M174.13 145.08L177.73 292.06H322.52L320.57 145.08H174.13Z" fill="#263238"/>
<path d="M190.15 164.1C197.22 166.01 206.15 165.2 213.41 164.85C213.94 164.85 214.449 164.639 214.824 164.264C215.199 163.889 215.41 163.38 215.41 162.85C215.41 162.32 215.199 161.811 214.824 161.436C214.449 161.061 213.94 160.85 213.41 160.85C206.15 160.49 197.21 159.68 190.15 161.6C189.875 161.682 189.634 161.85 189.463 162.08C189.291 162.309 189.198 162.588 189.198 162.875C189.198 163.162 189.291 163.441 189.463 163.67C189.634 163.9 189.875 164.068 190.15 164.15V164.1Z" fill="#E0E0E0"/>
<path d="M225.77 163.81C232.71 165.58 241.68 165.26 248.77 164.58C249.3 164.58 249.809 164.369 250.184 163.994C250.559 163.619 250.77 163.11 250.77 162.58C250.77 162.049 250.559 161.541 250.184 161.166C249.809 160.791 249.3 160.58 248.77 160.58C241.68 159.89 232.71 159.58 225.77 161.35C225.505 161.43 225.272 161.593 225.107 161.816C224.942 162.038 224.853 162.308 224.853 162.585C224.853 162.862 224.942 163.132 225.107 163.354C225.272 163.577 225.505 163.74 225.77 163.82V163.81Z" fill="#E0E0E0"/>
<path d="M260.91 163.18C264.4 164.24 268.17 164.06 271.79 164.12C275.487 164.34 279.195 164.27 282.88 163.91C284.69 163.65 284.69 160.5 282.88 160.25C279.195 159.882 275.487 159.808 271.79 160.03C268.17 160.09 264.4 159.91 260.91 160.97C260.67 161.039 260.46 161.184 260.31 161.384C260.16 161.583 260.079 161.826 260.079 162.075C260.079 162.324 260.16 162.567 260.31 162.766C260.46 162.966 260.67 163.111 260.91 163.18Z" fill="#E0E0E0"/>
<path d="M293.47 163.38C296.103 163.764 298.759 163.967 301.42 163.99C304.06 164.05 306.91 164.48 309.47 163.75C309.83 163.641 310.145 163.42 310.368 163.118C310.592 162.816 310.713 162.451 310.713 162.075C310.713 161.699 310.592 161.334 310.368 161.032C310.145 160.73 309.83 160.509 309.47 160.4C306.91 159.67 304.06 160.1 301.42 160.16C298.759 160.181 296.102 160.388 293.47 160.78C293.192 160.865 292.949 161.038 292.776 161.272C292.603 161.506 292.51 161.789 292.51 162.08C292.51 162.371 292.603 162.654 292.776 162.888C292.949 163.122 293.192 163.295 293.47 163.38V163.38Z" fill="#E0E0E0"/>
<path d="M219.74 309.54H177.78V339.53H219.74V309.54Z" fill="#9CDEAD"/>
<path d="M185.37 309.54H177.78V339.53H185.37V309.54Z" fill="#263238"/>
<path d="M271.12 309.54H229.16V339.53H271.12V309.54Z" fill="#9CDEAD"/>
<path d="M236.32 309.54H228.73V339.53H236.32V309.54Z" fill="#263238"/>
<path d="M322.51 309.54H280.55V339.53H322.51V309.54Z" fill="#9CDEAD"/>
<path d="M286.94 309.54H279.35V339.53H286.94V309.54Z" fill="#263238"/>
<path d="M322.51 349.44H280.55V379.43H322.51V349.44Z" fill="#9CDEAD"/>
<path d="M288.37 349.44H280.55V379.43H288.37V349.44Z" fill="#263238"/>
<path d="M219.74 349.44H177.78V379.43H219.74V349.44Z" fill="#9CDEAD"/>
<path d="M185.37 349.38H177.78V379.37H185.37V349.38Z" fill="#263238"/>
<path d="M219.74 388.94H177.78V418.93H219.74V388.94Z" fill="#9CDEAD"/>
<path opacity="0.3" d="M219.74 388.94H177.78V418.93H219.74V388.94Z" fill="black"/>
<path d="M185.37 388.94H177.78V418.93H185.37V388.94Z" fill="#263238"/>
<path d="M270.89 349.44H228.93V379.43H270.89V349.44Z" fill="#9CDEAD"/>
<path d="M236.52 349.38H228.93V379.37H236.52V349.38Z" fill="#263238"/>
<path d="M271.12 388.94H229.16V418.93H271.12V388.94Z" fill="#9CDEAD"/>
<path opacity="0.3" d="M271.12 388.94H229.16V418.93H271.12V388.94Z" fill="black"/>
<path d="M236.75 388.94H229.16V418.93H236.75V388.94Z" fill="#263238"/>
<path d="M322.51 388.94H280.55V418.93H322.51V388.94Z" fill="#E0E0E0"/>
<path d="M288.14 388.94H280.55V418.93H288.14V388.94Z" fill="#263238"/>
<path d="M153.15 442.92C152.43 442.92 149.8 372.18 147.27 284.92C144.74 197.66 143.27 126.83 143.99 126.81C144.71 126.79 147.34 197.53 149.87 284.81C152.4 372.09 153.87 442.9 153.15 442.92Z" fill="#455A64"/>
<path d="M322.3 275.32V280.71L338.9 284.84L338.81 276.53L322.3 275.32Z" fill="#455A64"/>
<path d="M120.79 264.51C119.882 264.147 118.906 263.986 117.93 264.04C116.948 264.133 115.984 264.369 115.07 264.74L103.71 268.54L81.51 276L39.51 290C37.8528 290.473 36.4286 291.542 35.51 293C34.6026 294.428 34.2636 296.144 34.56 297.81C34.7446 298.635 34.9851 299.447 35.28 300.24L36.09 302.66C36.63 304.27 37.16 305.86 37.7 307.45C39.8067 313.777 41.86 319.92 43.86 325.88C47.86 337.78 51.54 348.88 54.93 358.97C61.67 379.2 67.14 395.58 70.93 406.9C72.81 412.56 74.26 416.95 75.26 419.9C75.74 421.39 76.12 422.52 76.37 423.29C76.62 424.06 76.73 424.45 76.73 424.45C76.73 424.45 76.85 424.85 77.24 425.55C77.8166 426.592 78.6496 427.47 79.66 428.1C80.4787 428.607 81.3933 428.94 82.3466 429.078C83.2998 429.215 84.2712 429.155 85.2 428.9C87.38 428.2 89.88 427.32 92.71 426.38L134.47 412.3L89.93 273.2L112.21 265.73L152.44 389L150.68 346.12C142.58 321.99 133.83 295.9 124.68 268.67C124.37 267.737 123.861 266.882 123.19 266.164C122.519 265.446 121.7 264.882 120.79 264.51V264.51ZM69.45 327.88L59.51 296.42L62.88 295.35L72.82 326.81L69.45 327.88ZM76.35 310.55L70.55 292.21L73.92 291.15L79.72 309.48L76.35 310.55ZM84.13 333.81L78.34 315.47L81.71 314.41L87.5 332.74L84.13 333.81ZM86.13 338.73L89.5 337.66L105.55 388.44L102.18 389.5L86.13 338.73ZM107.13 405.17L103.7 394.32L107.07 393.25L110.5 404.11L107.13 405.17ZM121 399.41L117.63 400.47L96.46 333.47L99.83 332.41L121 399.41ZM98.1 326L94.73 327.06L82.45 288.23L85.82 287.16L98.1 326Z" fill="#9CDEAD"/>
<path opacity="0.3" d="M120.79 264.51C119.882 264.147 118.906 263.986 117.93 264.04C116.948 264.133 115.984 264.369 115.07 264.74L103.71 268.54L81.51 276L39.51 290C37.8528 290.473 36.4286 291.542 35.51 293C34.6026 294.428 34.2636 296.144 34.56 297.81C34.7446 298.635 34.9851 299.447 35.28 300.24L36.09 302.66C36.63 304.27 37.16 305.86 37.7 307.45C39.8067 313.777 41.86 319.92 43.86 325.88C47.86 337.78 51.54 348.88 54.93 358.97C61.67 379.2 67.14 395.58 70.93 406.9C72.81 412.56 74.26 416.95 75.26 419.9C75.74 421.39 76.12 422.52 76.37 423.29C76.62 424.06 76.73 424.45 76.73 424.45C76.73 424.45 76.85 424.85 77.24 425.55C77.8166 426.592 78.6496 427.47 79.66 428.1C80.4787 428.607 81.3933 428.94 82.3466 429.078C83.2998 429.215 84.2712 429.155 85.2 428.9C87.38 428.2 89.88 427.32 92.71 426.38L134.47 412.3L89.93 273.2L112.21 265.73L152.44 389L150.68 346.12C142.58 321.99 133.83 295.9 124.68 268.67C124.37 267.737 123.861 266.882 123.19 266.164C122.519 265.446 121.7 264.882 120.79 264.51V264.51ZM69.45 327.88L59.51 296.42L62.88 295.35L72.82 326.81L69.45 327.88ZM76.35 310.55L70.55 292.21L73.92 291.15L79.72 309.48L76.35 310.55ZM84.13 333.81L78.34 315.47L81.71 314.41L87.5 332.74L84.13 333.81ZM86.13 338.73L89.5 337.66L105.55 388.44L102.18 389.5L86.13 338.73ZM107.13 405.17L103.7 394.32L107.07 393.25L110.5 404.11L107.13 405.17ZM121 399.41L117.63 400.47L96.46 333.47L99.83 332.41L121 399.41ZM98.1 326L94.73 327.06L82.45 288.23L85.82 287.16L98.1 326Z" fill="black"/>
<path d="M134.5 412.49L134.45 412.33L92.69 426.41C89.86 427.35 87.36 428.23 85.18 428.93C84.2512 429.185 83.2798 429.245 82.3265 429.108C81.3733 428.97 80.4587 428.637 79.64 428.13C78.6295 427.5 77.7966 426.622 77.22 425.58C76.83 424.88 76.74 424.47 76.71 424.48L76.81 424.77C76.9142 425.055 77.0378 425.332 77.18 425.6C77.7417 426.665 78.5726 427.565 79.59 428.21C80.4144 428.738 81.3407 429.088 82.3087 429.236C83.2768 429.384 84.2652 429.328 85.21 429.07C87.41 428.38 89.91 427.52 92.75 426.58L140.68 410.58L152.05 406.78L153.15 406.22L134.5 412.49Z" fill="#263238"/>
<path d="M76.35 423.31C76.1 422.54 75.72 421.41 75.24 419.92C74.24 416.92 72.79 412.54 70.91 406.92C67.14 395.6 61.67 379.22 54.91 358.99C51.52 348.88 47.82 337.8 43.84 325.9C41.84 319.953 39.7867 313.81 37.68 307.47C37.14 305.88 36.61 304.29 36.07 302.68L35.26 300.26C34.9651 299.467 34.7246 298.655 34.54 297.83C34.2436 296.164 34.5826 294.448 35.49 293.02C36.4086 291.562 37.8328 290.493 39.49 290.02L81.49 276.02L103.69 268.58L115.05 264.78C115.964 264.409 116.928 264.173 117.91 264.08C118.886 264.026 119.862 264.187 120.77 264.55C121.682 264.918 122.503 265.478 123.178 266.192C123.853 266.907 124.365 267.759 124.68 268.69C133.81 295.92 142.56 322.01 150.68 346.14L150.61 344.52C142.67 320.8 134.09 295.22 125.16 268.52C124.822 267.522 124.272 266.609 123.549 265.843C122.826 265.077 121.946 264.475 120.97 264.08C119.996 263.691 118.948 263.52 117.9 263.58C116.87 263.673 115.86 263.915 114.9 264.3L103.55 268.11L81.35 275.55L39.35 289.63C37.5935 290.114 36.0769 291.228 35.09 292.76C34.1268 294.285 33.77 296.115 34.09 297.89C34.2809 298.736 34.5281 299.567 34.83 300.38C35.1 301.19 35.38 301.99 35.65 302.8C36.18 304.4 36.72 306 37.25 307.58C39.3833 313.907 41.4467 320.05 43.44 326.01L54.6 359.06L70.73 406.94C72.65 412.58 74.13 416.94 75.14 419.94C75.65 421.42 76.04 422.55 76.3 423.32L76.71 424.47C76.71 424.47 76.6 424.08 76.35 423.31Z" fill="#263238"/>
<path d="M99.7943 332.423L96.4285 333.487L117.603 400.481L120.969 399.417L99.7943 332.423Z" fill="#FAFAFA"/>
<path d="M85.8191 287.16L82.4532 288.224L94.7341 327.079L98.1 326.015L85.8191 287.16Z" fill="#FAFAFA"/>
<path d="M73.9231 291.144L70.5573 292.208L76.3526 310.544L79.7185 309.48L73.9231 291.144Z" fill="#FAFAFA"/>
<path d="M62.2395 294.415L58.886 295.474L68.786 326.824L72.1395 325.765L62.2395 294.415Z" fill="#FAFAFA"/>
<path d="M107.113 393.245L103.747 394.308L107.176 405.159L110.542 404.096L107.113 393.245Z" fill="#FAFAFA"/>
<path d="M81.7013 314.408L78.3354 315.472L84.1308 333.808L87.4967 332.744L81.7013 314.408Z" fill="#FAFAFA"/>
<path d="M89.4629 337.683L86.097 338.747L102.145 389.521L105.511 388.457L89.4629 337.683Z" fill="#FAFAFA"/>
<path d="M89.9301 273.2L134.45 412.33L134.5 412.49L153.15 406.24L152.44 388.98L112.21 265.73L89.9301 273.2Z" fill="#FAFAFA"/>
<path d="M134.25 420.8L152.33 414.44L151.94 406.51L134.5 412.49L134.25 420.8Z" fill="#263238"/>
<path d="M362.21 190.61C362.21 190.75 361.65 190.84 360.95 190.81C360.25 190.78 359.71 190.64 359.72 190.49C359.73 190.34 360.29 190.26 360.98 190.29C361.67 190.32 362.22 190.46 362.21 190.61Z" fill="#263238"/>
<path d="M372 190.19C371.232 190.514 370.403 190.667 369.57 190.64C368.751 190.79 367.909 190.766 367.1 190.57C368.688 190.098 370.358 189.969 372 190.19V190.19Z" fill="#263238"/>
<path d="M381.7 188.46C380.979 188.879 380.179 189.141 379.35 189.23C378.556 189.483 377.719 189.571 376.89 189.49C378.405 188.821 380.044 188.48 381.7 188.49V188.46Z" fill="#263238"/>
<path d="M391.05 185.47C390.392 185.976 389.636 186.341 388.83 186.54C388.08 186.9 387.262 187.098 386.43 187.12C387.086 186.61 387.842 186.245 388.65 186.05C389.404 185.699 390.219 185.502 391.05 185.47Z" fill="#263238"/>
<path d="M399.92 181.24C399.335 181.831 398.634 182.294 397.86 182.6C397.164 183.058 396.381 183.368 395.56 183.51C396.147 182.918 396.848 182.452 397.62 182.14C398.316 181.684 399.099 181.377 399.92 181.24V181.24Z" fill="#263238"/>
<path d="M408.09 175.79C408.18 175.9 407.36 176.64 406.25 177.44C405.631 177.996 404.902 178.415 404.11 178.67C404.03 178.55 404.85 177.81 405.95 177.01C407.05 176.21 408 175.67 408.09 175.79Z" fill="#263238"/>
<path d="M415.31 169.13C415.42 169.23 414.72 170.13 413.76 171.05C412.8 171.97 411.93 172.71 411.84 172.6C411.75 172.49 412.43 171.6 413.39 170.68C414.35 169.76 415.2 169 415.31 169.13Z" fill="#263238"/>
<path d="M421.28 161.34C421.41 161.41 420.87 162.34 420.09 163.5C419.31 164.66 418.58 165.5 418.47 165.37C418.716 164.574 419.121 163.836 419.66 163.2C420.44 162.1 421.16 161.26 421.28 161.34Z" fill="#263238"/>
<path d="M425.68 152.56C425.338 154.184 424.657 155.718 423.68 157.06C423.762 156.234 424.014 155.434 424.42 154.71C424.685 153.913 425.114 153.181 425.68 152.56V152.56Z" fill="#263238"/>
<path d="M428.28 143.1C428.354 143.928 428.255 144.762 427.99 145.55C427.892 146.378 427.619 147.175 427.19 147.89C427.21 146.234 427.582 144.601 428.28 143.1V143.1Z" fill="#263238"/>
<path d="M429.28 133.33C429.532 134.967 429.426 136.638 428.97 138.23C428.767 137.426 428.733 136.588 428.87 135.77C428.839 134.937 428.979 134.107 429.28 133.33Z" fill="#263238"/>
<path d="M428.79 123.53C429.285 125.11 429.432 126.778 429.22 128.42C428.903 127.653 428.743 126.83 428.75 126C428.595 125.183 428.609 124.342 428.79 123.53V123.53Z" fill="#263238"/>
<path d="M426.8 113.91C427.243 114.615 427.532 115.406 427.65 116.23C427.932 117.014 428.048 117.849 427.99 118.68C427.552 117.973 427.262 117.183 427.14 116.36C426.862 115.575 426.747 114.741 426.8 113.91V113.91Z" fill="#263238"/>
<path d="M423.24 104.76C423.795 105.379 424.214 106.108 424.47 106.9C424.885 107.624 425.141 108.429 425.22 109.26C424.671 108.632 424.253 107.901 423.99 107.11C423.581 106.386 423.326 105.587 423.24 104.76V104.76Z" fill="#263238"/>
<path d="M418 96.45C418.11 96.36 418.83 97.19 419.62 98.31C420.161 98.9407 420.566 99.676 420.81 100.47C420.69 100.55 419.96 99.71 419.19 98.61C418.65 97.9791 418.245 97.2439 418 96.45V96.45Z" fill="#263238"/>
<path d="M411.19 89.4099C411.28 89.2999 412.19 89.8999 413.19 90.8299C414.19 91.7599 414.87 92.6399 414.77 92.7399C414.67 92.8399 413.83 92.1299 412.84 91.2099C411.85 90.2899 411.1 89.5199 411.19 89.4099Z" fill="#263238"/>
<path d="M405.08 85.19C405.15 85.07 405.69 85.26 406.28 85.62C406.87 85.98 407.28 86.37 407.21 86.49C407.14 86.61 406.59 86.42 406.01 86.07C405.43 85.72 405 85.32 405.08 85.19Z" fill="#263238"/>
<path d="M377.96 109.89C397.091 109.89 412.6 94.3811 412.6 75.25C412.6 56.1188 397.091 40.61 377.96 40.61C358.829 40.61 343.32 56.1188 343.32 75.25C343.32 94.3811 358.829 109.89 377.96 109.89Z" fill="#9CDEAD"/>
<path d="M357.47 77.78L362.83 72.42L373.17 81.61L393.47 62.08L398.45 67.44L372.41 91.95L357.47 77.78Z" fill="#FAFAFA"/>
<path d="M407.48 163.6C405.41 167.05 405.62 171.38 406.2 175.37C406.78 179.36 407.68 183.43 406.79 187.37C406.2 189.96 404.79 192.55 405.47 195.12C405.92 196.95 407.29 198.39 407.97 200.12C408.97 202.62 408.4 205.4 408.07 208.06C407.74 210.72 407.76 213.69 409.52 215.7C411.71 218.2 415.74 218.09 418.74 216.7C421.74 215.31 424.12 212.84 426.9 211.03C429.68 209.22 433.3 208.03 436.29 209.47C437.67 210.13 438.86 211.31 440.38 211.47C442.51 211.63 444.19 209.68 446.25 209.11C448.02 208.63 449.91 209.22 451.73 209.01C455.44 208.6 458.18 204.6 457.66 200.91C457.312 199.068 456.402 197.378 455.056 196.073C453.709 194.768 451.992 193.911 450.14 193.62C448.57 193.36 446.68 193.32 445.82 191.98C444.54 189.98 446.82 187.47 446.39 185.16C446.11 183.5 444.53 182.39 442.98 181.71C441.43 181.03 439.72 180.58 438.52 179.4C436.37 177.3 436.61 173.86 435.95 170.92C434.86 166.08 430.33 156.17 420.47 155.2" fill="#263238"/>
<path d="M402.91 439L403.1 431.94L416.33 432.21L416.16 442.54H415.34C411.69 442.67 396.75 442.94 394.34 442.15C391.62 441.3 402.91 439 402.91 439Z" fill="#9CDEAD"/>
<path d="M411.37 442.33C411.585 441.22 412.205 440.229 413.11 439.55C413.996 438.868 415.107 438.547 416.22 438.65L416.15 442.34L411.37 442.33Z" fill="#9CDEAD"/>
<path d="M397.39 440.31C397.39 440.31 393.39 441.37 393.91 442.03C394.43 442.69 409.49 443.03 416.16 442.53V442.24L398.55 442.04C398.55 442.04 398.16 440.36 397.39 440.31Z" fill="#9CDEAD"/>
<path d="M416.35 442.23H416.12H415.47L413.07 442.29C411.07 442.29 408.23 442.29 405.13 442.29C402.03 442.29 399.22 442.12 397.19 442.01L394.79 441.86L394.14 441.81H393.91H394.14H394.79L397.2 441.9C399.2 441.98 402.03 442.08 405.13 442.14C408.23 442.2 411.03 442.21 413.06 442.2H416.35V442.23Z" fill="#263238"/>
<path d="M398.53 442.25C398.43 441.849 398.285 441.46 398.1 441.09C397.868 440.749 397.6 440.434 397.3 440.15C397.709 440.311 398.044 440.617 398.24 441.01C398.483 441.375 398.586 441.815 398.53 442.25V442.25Z" fill="#263238"/>
<path d="M402.47 440.34C402.47 440.34 402.25 440.13 402.06 439.83C401.87 439.53 401.75 439.25 401.79 439.23C401.83 439.21 402.01 439.44 402.2 439.74C402.39 440.04 402.51 440.32 402.47 440.34Z" fill="#263238"/>
<path d="M403.55 439.8C403.55 439.8 403.32 439.69 403.09 439.48C402.86 439.27 402.71 439.07 402.74 439.04C402.77 439.01 402.98 439.15 403.2 439.36C403.42 439.57 403.58 439.77 403.55 439.8Z" fill="#263238"/>
<path d="M404.25 438.56C404.25 438.61 403.94 438.64 403.56 438.64C403.18 438.64 402.87 438.64 402.87 438.55C403.092 438.475 403.328 438.451 403.56 438.48C403.793 438.457 404.028 438.484 404.25 438.56V438.56Z" fill="#263238"/>
<path d="M404.5 437.69C404.271 437.837 404.002 437.91 403.73 437.9C403.46 437.943 403.182 437.897 402.94 437.77C403.2 437.748 403.461 437.748 403.72 437.77C403.976 437.712 404.238 437.685 404.5 437.69Z" fill="#263238"/>
<path d="M402 439.18C401.719 439.23 401.431 439.23 401.15 439.18C400.844 439.132 400.543 439.058 400.25 438.96C400.073 438.904 399.902 438.831 399.74 438.74C399.64 438.678 399.565 438.582 399.53 438.47C399.518 438.406 399.525 438.34 399.55 438.28C399.575 438.219 399.617 438.167 399.67 438.13C399.999 437.98 400.369 437.947 400.719 438.038C401.069 438.129 401.377 438.338 401.59 438.63C401.719 438.798 401.808 438.993 401.85 439.2C401.85 439.34 401.85 439.43 401.85 439.43C401.771 439.167 401.646 438.92 401.48 438.7C401.294 438.469 401.044 438.298 400.76 438.21C400.433 438.094 400.074 438.112 399.76 438.26C399.62 438.36 399.67 438.52 399.82 438.61C399.97 438.694 400.127 438.765 400.29 438.82C400.573 438.926 400.864 439.01 401.16 439.07C401.72 439.15 402 439.15 402 439.18Z" fill="#263238"/>
<path d="M401.82 439.22C401.723 439.04 401.695 438.83 401.74 438.63C401.77 438.401 401.859 438.183 402 438C402.073 437.873 402.178 437.768 402.304 437.694C402.431 437.621 402.574 437.581 402.72 437.58C402.804 437.604 402.876 437.658 402.923 437.732C402.969 437.806 402.986 437.894 402.97 437.98C402.945 438.112 402.894 438.238 402.82 438.35C402.704 438.535 402.566 438.706 402.41 438.86C402.273 439.012 402.101 439.128 401.91 439.2C401.91 439.2 402.09 439.05 402.33 438.78C402.47 438.628 402.59 438.461 402.69 438.28C402.81 438.1 402.9 437.78 402.69 437.74C402.48 437.7 402.25 437.92 402.12 438.09C401.994 438.251 401.908 438.439 401.87 438.64C401.839 438.832 401.822 439.026 401.82 439.22V439.22Z" fill="#263238"/>
<path d="M416.15 438.61C416.15 438.61 415.78 438.56 415.15 438.61C414.368 438.681 413.622 438.972 412.999 439.45C412.376 439.928 411.901 440.573 411.63 441.31C411.42 441.87 411.39 442.25 411.36 442.25C411.348 442.16 411.348 442.07 411.36 441.98C411.481 441.048 411.926 440.189 412.617 439.553C413.309 438.917 414.202 438.544 415.14 438.5C415.38 438.481 415.62 438.481 415.86 438.5C416.06 438.57 416.16 438.6 416.15 438.61Z" fill="#263238"/>
<path d="M414.89 433.08C414.966 433.985 414.986 434.893 414.95 435.8C414.974 436.705 414.941 437.61 414.85 438.51C414.78 437.609 414.76 436.704 414.79 435.8C414.772 434.892 414.805 433.984 414.89 433.08V433.08Z" fill="#263238"/>
<path d="M409.73 441C409.093 441.136 408.441 441.186 407.79 441.15C407.141 441.167 406.493 441.104 405.86 440.96C405.86 440.91 406.73 440.96 407.8 440.96C408.87 440.96 409.72 441 409.73 441Z" fill="#263238"/>
<path d="M412.32 441.06C412.32 441.06 412.25 441.24 412.15 441.43C412.05 441.62 412.01 441.81 411.96 441.8C411.91 441.79 411.9 441.59 412.01 441.37C412.12 441.15 412.29 441 412.32 441.06Z" fill="#263238"/>
<path d="M413.32 439.86C413.32 439.86 413.26 440.03 413.12 440.16C412.98 440.29 412.85 440.38 412.82 440.35C412.79 440.32 412.87 440.18 413.01 440.05C413.15 439.92 413.29 439.83 413.32 439.86Z" fill="#263238"/>
<path d="M414.73 439.33C414.73 439.38 414.54 439.33 414.35 439.44C414.16 439.55 414.01 439.6 413.98 439.57C413.95 439.54 414.06 439.36 414.3 439.28C414.54 439.2 414.74 439.29 414.73 439.33Z" fill="#263238"/>
<path d="M415.73 439.09C415.73 439.09 415.67 439.2 415.56 439.24C415.45 439.28 415.34 439.24 415.33 439.24C415.32 439.24 415.39 439.13 415.5 439.09C415.61 439.05 415.71 439.05 415.73 439.09Z" fill="#263238"/>
<path d="M440.44 439L440.63 431.94L453.85 432.21L453.68 442.54H452.86C449.21 442.67 434.28 442.94 431.86 442.15C429.15 441.3 440.44 439 440.44 439Z" fill="#9CDEAD"/>
<path d="M448.89 442.33C449.11 441.219 449.733 440.228 450.64 439.55C451.525 438.867 452.637 438.545 453.75 438.65L453.67 442.34L448.89 442.33Z" fill="#9CDEAD"/>
<path d="M434.92 440.31C434.92 440.31 430.92 441.37 431.43 442.03C431.94 442.69 447.01 443.03 453.68 442.53V442.24L436.06 442.04C436.06 442.04 435.69 440.36 434.92 440.31Z" fill="#9CDEAD"/>
<path d="M453.88 442.23H453.65H453L450.59 442.29C448.59 442.29 445.75 442.29 442.65 442.29C439.55 442.29 436.74 442.12 434.72 442.01L432.31 441.86L431.66 441.81H431.43H431.66H432.32L434.72 441.9C436.72 441.98 439.55 442.08 442.65 442.14C445.75 442.2 448.56 442.21 450.59 442.2H453.88V442.23Z" fill="#263238"/>
<path d="M436.05 442.25C435.956 441.848 435.815 441.459 435.63 441.09C435.398 440.749 435.13 440.434 434.83 440.15C435.223 440.334 435.551 440.634 435.769 441.009C435.987 441.384 436.085 441.817 436.05 442.25Z" fill="#263238"/>
<path d="M440 440.34C440 440.34 439.78 440.13 439.6 439.83C439.42 439.53 439.29 439.25 439.33 439.23C439.37 439.21 439.55 439.44 439.73 439.74C439.91 440.04 440 440.32 440 440.34Z" fill="#263238"/>
<path d="M441.08 439.8C441.08 439.8 440.84 439.69 440.62 439.48C440.4 439.27 440.24 439.07 440.27 439.04C440.3 439.01 440.5 439.15 440.73 439.36C440.96 439.57 441.11 439.77 441.08 439.8Z" fill="#263238"/>
<path d="M441.78 438.56C441.78 438.61 441.47 438.64 441.09 438.64C440.71 438.64 440.4 438.64 440.4 438.55C440.622 438.475 440.858 438.451 441.09 438.48C441.323 438.457 441.558 438.484 441.78 438.56V438.56Z" fill="#263238"/>
<path d="M442 437.69C441.766 437.833 441.495 437.906 441.22 437.9C440.95 437.943 440.672 437.897 440.43 437.77C440.69 437.749 440.95 437.749 441.21 437.77C441.469 437.712 441.734 437.685 442 437.69V437.69Z" fill="#263238"/>
<path d="M439.57 439.18C439.289 439.229 439.001 439.229 438.72 439.18C438.414 439.132 438.113 439.058 437.82 438.96C437.639 438.906 437.465 438.833 437.3 438.74C437.202 438.678 437.131 438.582 437.1 438.47C437.09 438.407 437.096 438.342 437.119 438.282C437.142 438.223 437.18 438.17 437.23 438.13C437.558 437.978 437.93 437.944 438.28 438.035C438.63 438.127 438.938 438.337 439.15 438.63C439.281 438.798 439.373 438.992 439.42 439.2C439.438 439.276 439.438 439.354 439.42 439.43C439.34 439.165 439.211 438.918 439.04 438.7C438.856 438.471 438.609 438.301 438.33 438.21C438.003 438.097 437.644 438.115 437.33 438.26C437.2 438.36 437.25 438.52 437.39 438.61C437.543 438.696 437.703 438.766 437.87 438.82C438.153 438.928 438.444 439.011 438.74 439.07C439.24 439.15 439.57 439.15 439.57 439.18Z" fill="#263238"/>
<path d="M439.35 439.22C439.246 439.042 439.214 438.831 439.26 438.63C439.294 438.407 439.38 438.194 439.51 438.01C439.582 437.885 439.686 437.781 439.81 437.707C439.934 437.633 440.076 437.593 440.22 437.59C440.306 437.612 440.381 437.665 440.429 437.739C440.477 437.813 440.495 437.903 440.48 437.99C440.458 438.125 440.403 438.252 440.32 438.36C440.207 438.548 440.069 438.719 439.91 438.87C439.776 439.02 439.608 439.137 439.42 439.21C439.42 439.21 439.59 439.06 439.83 438.79C439.97 438.636 440.094 438.469 440.2 438.29C440.32 438.11 440.4 437.79 440.2 437.75C440 437.71 439.77 437.93 439.63 438.1C439.512 438.266 439.427 438.452 439.38 438.65C439.353 438.839 439.343 439.03 439.35 439.22V439.22Z" fill="#263238"/>
<path d="M453.68 438.61C453.68 438.61 453.3 438.56 452.68 438.61C451.901 438.69 451.157 438.98 450.53 439.45C449.915 439.936 449.442 440.578 449.16 441.31C448.95 441.87 448.92 442.25 448.89 442.25C448.875 442.161 448.875 442.069 448.89 441.98C448.918 441.738 448.971 441.5 449.05 441.27C449.299 440.496 449.778 439.817 450.423 439.322C451.068 438.827 451.848 438.54 452.66 438.5C452.903 438.482 453.147 438.482 453.39 438.5C453.493 438.516 453.592 438.554 453.68 438.61V438.61Z" fill="#263238"/>
<path d="M452.42 433.08C452.49 433.985 452.51 434.893 452.48 435.8C452.498 436.705 452.465 437.609 452.38 438.51C452.304 437.609 452.284 436.704 452.32 435.8C452.296 434.892 452.329 433.984 452.42 433.08V433.08Z" fill="#263238"/>
<path d="M447.25 441C446.616 441.136 445.967 441.187 445.32 441.15C444.671 441.169 444.023 441.105 443.39 440.96C443.39 440.91 444.26 440.96 445.32 440.96C446.38 440.96 447.25 441 447.25 441Z" fill="#263238"/>
<path d="M449.84 441.06C449.84 441.06 449.77 441.24 449.68 441.43C449.59 441.62 449.53 441.81 449.49 441.8C449.45 441.79 449.43 441.59 449.49 441.37C449.55 441.15 449.82 441 449.84 441.06Z" fill="#263238"/>
<path d="M450.85 439.86C450.85 439.86 450.79 440.03 450.65 440.16C450.51 440.29 450.37 440.38 450.34 440.35C450.31 440.32 450.4 440.18 450.54 440.05C450.68 439.92 450.81 439.83 450.85 439.86Z" fill="#263238"/>
<path d="M452.25 439.33C452.25 439.38 452.07 439.33 451.87 439.44C451.67 439.55 451.54 439.6 451.5 439.57C451.46 439.54 451.58 439.36 451.82 439.28C452.06 439.2 452.27 439.29 452.25 439.33Z" fill="#263238"/>
<path d="M453.25 439.09C453.25 439.09 453.19 439.2 453.08 439.24C452.97 439.28 452.87 439.24 452.85 439.24C452.83 439.24 452.92 439.13 453.03 439.09C453.14 439.05 453.24 439.05 453.25 439.09Z" fill="#263238"/>
<path d="M400.24 257.55L393.9 352.06V437.29H419.24C419.24 437.29 420.31 363.79 419.64 358.98C419.64 358.98 423.78 285.36 424.25 286.41C425.25 288.56 425.19 351.14 426.61 358.89C428.03 366.64 434.61 437.29 434.61 437.29H459L450.8 356.29C450.63 346.53 448.12 260.82 448.12 260.82L400.24 257.55Z" fill="#263238"/>
<path d="M458.45 432.45C458.174 432.646 457.848 432.761 457.51 432.78C456.594 432.859 455.673 432.708 454.83 432.34C453.66 431.764 452.429 431.322 451.16 431.02C449.73 430.81 448.24 431.56 446.82 432.51C445.514 433.541 443.982 434.247 442.35 434.57C440.997 434.7 439.632 434.532 438.35 434.08C437.497 433.798 436.662 433.464 435.85 433.08C435.543 432.962 435.256 432.797 435 432.59C435 432.5 436.31 433.11 438.45 433.75C439.692 434.13 440.999 434.252 442.29 434.11C443.842 433.781 445.297 433.096 446.54 432.11C447.25 431.628 448.007 431.219 448.8 430.89C449.568 430.586 450.401 430.482 451.22 430.59C452.535 430.896 453.805 431.37 455 432C455.787 432.376 456.648 432.571 457.52 432.57C458.11 432.55 458.43 432.4 458.45 432.45Z" fill="#455A64"/>
<path d="M419.45 431.86C419.2 431.624 418.932 431.407 418.65 431.21C417.838 430.757 416.889 430.615 415.98 430.81C414.632 431.191 413.37 431.826 412.26 432.68C411.548 433.158 410.791 433.567 410 433.9C409.117 434.261 408.153 434.375 407.21 434.23C405.29 433.9 403.77 432.9 402.21 432.56C400.851 432.266 399.438 432.328 398.11 432.74C395.81 433.43 394.46 434.14 394.42 434.04C394.702 433.821 395.011 433.639 395.34 433.5C396.199 433.056 397.092 432.682 398.01 432.38C399.396 431.904 400.883 431.804 402.32 432.09C403.95 432.44 405.49 433.43 407.25 433.72C409.01 434.01 410.62 433.1 411.95 432.27C413.116 431.404 414.447 430.785 415.86 430.45C416.854 430.27 417.879 430.481 418.72 431.04C419.046 431.226 419.303 431.514 419.45 431.86Z" fill="#455A64"/>
<path d="M446.41 277.15C445.966 277.437 445.457 277.609 444.93 277.65C443.671 277.838 442.386 277.758 441.16 277.413C439.935 277.068 438.796 276.467 437.82 275.65C437.08 275.02 436.75 274.51 436.82 274.47C438.117 275.61 439.656 276.441 441.32 276.9C442.985 277.359 444.732 277.434 446.43 277.12L446.41 277.15Z" fill="#455A64"/>
<path d="M404.34 273.46C404.4 273.46 404.4 273.97 404.14 274.71C403.787 275.678 403.2 276.544 402.43 277.23C401.658 277.915 400.732 278.402 399.73 278.65C398.96 278.82 398.47 278.76 398.47 278.7C399.812 278.396 401.055 277.755 402.082 276.839C403.109 275.922 403.886 274.759 404.34 273.46V273.46Z" fill="#455A64"/>
<path d="M398.17 226.28L393.07 207.59C393.07 207.59 369.07 213.84 367.54 211.9C358.83 201.13 354.43 186.33 353.06 181.02C353.25 180.26 353.51 179.37 353.86 178.33C354.164 177.44 354.617 176.608 355.2 175.87C355.887 174.929 356.702 174.087 357.62 173.37C357.812 173.262 357.967 173.097 358.062 172.898C358.158 172.7 358.191 172.476 358.156 172.259C358.121 172.041 358.02 171.839 357.867 171.68C357.714 171.521 357.516 171.413 357.3 171.37C356.3 171.3 353.78 172.82 351.89 175.71C350 178.6 349.43 173.2 349.19 171.24C348.95 169.28 347.9 163.24 347.24 162.81C346.24 162.22 345.45 163.15 345.74 165.11C346.03 167.07 346.48 173.01 345.44 173.11C344.4 173.21 343.3 163.11 343.3 163.11C343.3 163.11 343.41 160.93 342.2 160.98C340.01 161.07 341.98 171.65 342.2 172.66C342.35 173.35 341.2 173.48 341.1 172.72C341 171.96 340.22 162.72 338 162.72C336.29 162.78 339.53 171.44 338.62 173.45C337.71 175.46 336.83 166.63 335.2 166.75C334.6 166.75 334.15 166.91 335.39 171.91C336.435 175.474 337.67 178.979 339.09 182.41H339C339 182.41 347.9 234.63 371 231.71C395.59 228.67 398.17 226.28 398.17 226.28Z" fill="#FFBE9D"/>
<path d="M363.32 278.09L216.75 267.42C215.76 267.352 214.793 267.088 213.905 266.645C213.017 266.202 212.225 265.588 211.574 264.839C210.924 264.089 210.428 263.218 210.115 262.276C209.802 261.334 209.678 260.34 209.75 259.35L216.31 169.3C216.378 168.31 216.642 167.343 217.085 166.455C217.528 165.567 218.142 164.775 218.891 164.124C219.641 163.474 220.512 162.978 221.454 162.665C222.396 162.352 223.39 162.228 224.38 162.3L371 173C371.99 173.07 372.956 173.334 373.844 173.777C374.731 174.221 375.523 174.835 376.173 175.584C376.823 176.334 377.319 177.204 377.632 178.145C377.946 179.086 378.071 180.08 378 181.07L371.44 271.12C371.369 272.113 371.103 273.081 370.655 273.97C370.208 274.859 369.589 275.65 368.834 276.298C368.079 276.946 367.203 277.439 366.256 277.746C365.31 278.054 364.312 278.17 363.32 278.09V278.09Z" fill="#9CDEAD"/>
<path d="M363.32 278.09C363.766 278.115 364.214 278.115 364.66 278.09C365.972 277.948 367.222 277.458 368.28 276.67C369.135 276.037 369.844 275.228 370.362 274.299C370.879 273.369 371.192 272.34 371.28 271.28C371.46 268.74 371.67 265.81 371.9 262.52L375.9 206.75C376.32 200.863 376.763 194.7 377.23 188.26C377.35 186.66 377.46 185.03 377.58 183.4C377.7 181.77 377.98 180.09 377.46 178.53C377.009 176.936 376.019 175.547 374.66 174.6C373.979 174.118 373.222 173.753 372.42 173.52C371.593 173.328 370.749 173.217 369.9 173.19L325.69 170L224.4 162.59C223.316 162.512 222.228 162.677 221.216 163.074C220.204 163.47 219.293 164.087 218.55 164.88C217.808 165.67 217.254 166.616 216.93 167.65C216.65 168.708 216.502 169.796 216.49 170.89C216.157 175.33 215.823 179.737 215.49 184.11C214.823 192.863 214.197 201.477 213.61 209.95C212.37 226.89 211.17 243.24 210.03 258.8C209.767 260.69 210.24 262.608 211.35 264.16C212.443 265.688 214.084 266.734 215.93 267.08C219.66 267.45 223.44 267.65 227.12 267.95L248.57 269.52L287.09 272.36L342.85 276.5L358 277.66L362 278L363.34 278.12C363.34 278.12 362.89 278.12 362 278.05L358 277.79L342.84 276.74L287.06 272.74L248.57 270L227.11 268.45C223.42 268.16 219.71 267.97 215.87 267.59C213.904 267.226 212.155 266.115 210.99 264.49C209.822 262.845 209.318 260.82 209.58 258.82C210.71 243.25 211.9 226.91 213.13 209.96C213.743 201.487 214.367 192.873 215 184.12C215.32 179.74 215.653 175.333 216 170.9C216.017 169.766 216.171 168.637 216.46 167.54C216.99 165.869 218.068 164.425 219.52 163.442C220.971 162.459 222.711 161.993 224.46 162.12L325.75 169.52L369.95 172.76C370.826 172.793 371.697 172.91 372.55 173.11C373.398 173.354 374.2 173.74 374.92 174.25C376.365 175.254 377.423 176.722 377.92 178.41C378.16 179.234 378.258 180.093 378.21 180.95C378.21 181.79 378.1 182.6 378.04 183.43C377.92 185.06 377.8 186.69 377.68 188.29C377.213 194.717 376.76 200.877 376.32 206.77C374.57 230.31 373.15 249.36 372.17 262.54C371.923 265.827 371.703 268.743 371.51 271.29C371.412 272.371 371.083 273.418 370.545 274.36C370.006 275.302 369.272 276.117 368.39 276.75C367.316 277.538 366.047 278.018 364.72 278.14C364.387 278.167 364.053 278.167 363.72 278.14L363.32 278.09Z" fill="#263238"/>
<path d="M352.91 196.26C352.742 198.463 351.925 200.567 350.563 202.306C349.2 204.045 347.353 205.342 345.254 206.032C343.155 206.722 340.899 206.774 338.77 206.183C336.641 205.591 334.735 204.383 333.293 202.709C331.851 201.035 330.937 198.971 330.666 196.779C330.396 194.586 330.782 192.362 331.774 190.388C332.767 188.414 334.322 186.779 336.243 185.688C338.165 184.597 340.366 184.1 342.57 184.26C344.037 184.369 345.468 184.766 346.782 185.428C348.095 186.09 349.265 187.004 350.226 188.118C351.186 189.233 351.917 190.525 352.378 191.922C352.838 193.319 353.019 194.793 352.91 196.26V196.26Z" fill="#FAFAFA"/>
<path d="M355.2 208.12C354.92 208.12 354.63 208.12 354.35 208.12C351.326 208.009 348.466 206.715 346.386 204.516C344.306 202.318 343.171 199.391 343.227 196.365C343.283 193.339 344.524 190.456 346.684 188.336C348.843 186.216 351.749 185.028 354.775 185.028C357.802 185.028 360.707 186.216 362.867 188.336C365.026 190.456 366.267 193.339 366.323 196.365C366.379 199.391 365.245 202.318 363.164 204.516C361.084 206.715 358.224 208.009 355.2 208.12V208.12ZM355.2 185.75C352.43 185.852 349.81 187.038 347.905 189.051C346 191.065 344.961 193.746 345.012 196.518C345.063 199.29 346.2 201.931 348.178 203.873C350.156 205.815 352.818 206.903 355.59 206.903C358.362 206.903 361.024 205.815 363.002 203.873C364.98 201.931 366.117 199.29 366.168 196.518C366.219 193.746 365.181 191.065 363.275 189.051C361.37 187.038 358.75 185.852 355.98 185.75H355.2Z" fill="#FAFAFA"/>
<path d="M226.33 230L225.68 239L224.76 238.93L225.35 230.78L223.24 230.63L223.3 229.81L226.33 230Z" fill="#FAFAFA"/>
<path d="M235 238.85L234.93 239.67L228.64 239.21V238.56L232.64 235.18C233.72 234.25 233.96 233.67 234 233.05C234.08 232.05 233.39 231.32 232 231.22C231.545 231.155 231.081 231.195 230.645 231.337C230.208 231.479 229.809 231.72 229.48 232.04L228.87 231.43C229.303 231.023 229.821 230.718 230.387 230.536C230.952 230.355 231.551 230.301 232.14 230.38C233.96 230.51 235.05 231.52 234.94 233.02C234.876 233.566 234.692 234.091 234.401 234.558C234.111 235.024 233.721 235.421 233.26 235.72L230 238.49L235 238.85Z" fill="#FAFAFA"/>
<path d="M244.52 238L242.73 237.87L242.55 240.23L241.63 240.16L241.8 237.8L236.74 237.44V236.77L241.93 231.17L242.93 231.24L237.93 236.7L241.83 236.99L241.98 234.91L242.88 234.97L242.73 237.05L244.52 237.18V238Z" fill="#FAFAFA"/>
<path d="M258.27 239L256.48 238.87L256.3 241.23L255.38 241.16L255.55 238.81L250.49 238.44V237.77L255.68 232.17L256.68 232.25L251.68 237.7L255.58 237.99L255.73 235.91L256.63 235.98L256.47 238.05L258.27 238.18V239Z" fill="#FAFAFA"/>
<path d="M266.13 239.29C266.02 240.82 264.87 241.93 262.68 241.77C261.496 241.728 260.375 241.23 259.55 240.38L260.05 239.69C260.748 240.437 261.709 240.882 262.73 240.93C264.25 241.04 265.11 240.35 265.19 239.26C265.27 238.17 264.61 237.34 262.33 237.17L260.42 237.03L261.21 232.57L266.12 232.93L266.06 233.75L261.96 233.45L261.44 236.28L262.6 236.37C265.3 236.56 266.25 237.7 266.13 239.29Z" fill="#FAFAFA"/>
<path d="M275 239.9C274.968 240.287 274.856 240.663 274.671 241.004C274.486 241.345 274.233 241.644 273.926 241.882C273.62 242.12 273.267 242.291 272.891 242.386C272.514 242.48 272.122 242.495 271.74 242.43C269.35 242.26 268.18 240.51 268.39 237.68C268.61 234.63 270.39 233.16 272.83 233.34C273.571 233.362 274.293 233.583 274.92 233.98L274.49 234.7C273.985 234.355 273.391 234.164 272.78 234.15C270.84 234.01 269.51 235.15 269.33 237.59C269.33 237.8 269.33 238.06 269.33 238.33C269.622 237.852 270.047 237.471 270.554 237.232C271.061 236.994 271.626 236.91 272.18 236.99C272.562 236.975 272.943 237.041 273.298 237.183C273.653 237.325 273.974 237.54 274.24 237.815C274.506 238.09 274.711 238.417 274.842 238.777C274.973 239.136 275.027 239.519 275 239.9ZM274.09 239.9C274.18 238.72 273.36 237.9 271.98 237.8C271.701 237.747 271.413 237.752 271.136 237.815C270.859 237.878 270.597 237.997 270.367 238.165C270.138 238.332 269.945 238.545 269.801 238.791C269.657 239.036 269.565 239.308 269.53 239.59C269.45 240.59 270.21 241.59 271.76 241.69C272.035 241.737 272.317 241.725 272.587 241.657C272.858 241.588 273.111 241.464 273.33 241.291C273.55 241.119 273.731 240.902 273.862 240.656C273.992 240.41 274.07 240.138 274.09 239.86V239.9Z" fill="#FAFAFA"/>
<path d="M287.27 240.9C287.16 242.4 285.99 243.47 283.82 243.31C282.634 243.266 281.51 242.769 280.68 241.92L281.18 241.23C281.887 241.975 282.854 242.419 283.88 242.47C285.37 242.57 286.24 241.94 286.32 240.83C286.4 239.72 285.69 238.99 284.03 238.83L283.39 238.78L283.44 238.1L286.15 235.17L281.56 234.84L281.62 234.02L287.39 234.44L287.34 235.09L284.57 238.09C286.49 238.38 287.37 239.46 287.27 240.9Z" fill="#FAFAFA"/>
<path d="M296.27 241.45C296.241 241.84 296.131 242.219 295.946 242.563C295.762 242.907 295.508 243.209 295.2 243.449C294.892 243.689 294.537 243.862 294.158 243.957C293.779 244.052 293.385 244.067 293 244C290.62 243.83 289.44 242.08 289.65 239.25C289.87 236.25 291.65 234.73 294.09 234.91C294.832 234.932 295.554 235.153 296.18 235.55L295.75 236.27C295.247 235.921 294.652 235.729 294.04 235.72C292.1 235.58 290.77 236.72 290.59 239.16C290.59 239.37 290.59 239.62 290.59 239.9C290.882 239.422 291.307 239.041 291.814 238.802C292.321 238.564 292.886 238.48 293.44 238.56C293.821 238.544 294.201 238.608 294.556 238.748C294.911 238.889 295.232 239.102 295.499 239.375C295.766 239.647 295.972 239.973 296.105 240.33C296.238 240.688 296.294 241.069 296.27 241.45V241.45ZM295.36 241.45C295.45 240.27 294.63 239.45 293.25 239.35C292.971 239.297 292.683 239.303 292.406 239.365C292.129 239.428 291.867 239.547 291.637 239.715C291.408 239.882 291.215 240.095 291.071 240.341C290.927 240.586 290.835 240.858 290.8 241.14C290.72 242.14 291.48 243.14 293.03 243.24C293.305 243.287 293.587 243.275 293.857 243.207C294.128 243.138 294.381 243.014 294.6 242.841C294.82 242.669 295.001 242.452 295.132 242.206C295.263 241.96 295.34 241.688 295.36 241.41V241.45Z" fill="#FAFAFA"/>
<path d="M305 235.76L304.95 236.41L300.59 244.41L299.59 244.34L303.88 236.46L299.27 236.12L299.14 237.8L298.23 237.74L298.42 235.24L305 235.76Z" fill="#FAFAFA"/>
<path d="M317.81 236.69L317.76 237.35L313.4 245.35L312.4 245.28L316.68 237.4L312.07 237.06L311.95 238.74L311.04 238.67L311.22 236.17L317.81 236.69Z" fill="#FAFAFA"/>
<path d="M326.16 243.81C326.05 245.4 324.63 246.28 322.49 246.13C320.35 245.98 319.1 244.89 319.22 243.3C319.252 242.79 319.457 242.307 319.8 241.929C320.144 241.551 320.606 241.301 321.11 241.22C320.701 241.062 320.354 240.774 320.125 240.4C319.895 240.026 319.795 239.587 319.84 239.15C319.95 237.69 321.26 236.87 323.16 237C325.06 237.13 326.26 238.15 326.16 239.61C326.139 240.051 325.972 240.473 325.687 240.809C325.401 241.145 325.012 241.378 324.58 241.47C325.069 241.624 325.491 241.94 325.778 242.364C326.065 242.789 326.2 243.299 326.16 243.81ZM325.22 243.73C325.3 242.62 324.4 241.86 322.81 241.73C321.22 241.6 320.24 242.23 320.16 243.34C320.08 244.45 320.96 245.21 322.55 245.34C324.14 245.47 325.14 244.84 325.22 243.73ZM322.86 241C324.26 241.1 325.14 240.53 325.21 239.56C325.28 238.59 324.44 237.86 323.1 237.77C321.76 237.68 320.84 238.22 320.77 239.22C320.7 240.22 321.47 240.91 322.86 241Z" fill="#FAFAFA"/>
<path d="M335 242.38C334.78 245.43 333 246.9 330.56 246.72C329.819 246.695 329.098 246.474 328.47 246.08L328.89 245.36C329.399 245.705 329.996 245.896 330.61 245.91C332.54 246.05 333.87 244.91 334.05 242.46C334.05 242.26 334.05 242 334.05 241.73C333.756 242.208 333.328 242.589 332.82 242.827C332.312 243.065 331.746 243.149 331.19 243.07C330.807 243.086 330.425 243.022 330.069 242.88C329.713 242.739 329.391 242.524 329.123 242.249C328.856 241.974 328.65 241.646 328.518 241.286C328.387 240.926 328.333 240.542 328.36 240.16C328.393 239.773 328.507 239.397 328.692 239.056C328.878 238.715 329.133 238.416 329.44 238.178C329.748 237.94 330.101 237.769 330.478 237.674C330.855 237.58 331.247 237.565 331.63 237.63C334.06 237.8 335.23 239.55 335 242.38ZM333.86 240.5C333.93 239.5 333.18 238.5 331.63 238.41C331.358 238.363 331.079 238.373 330.811 238.44C330.544 238.506 330.292 238.627 330.073 238.795C329.855 238.963 329.673 239.175 329.54 239.417C329.407 239.658 329.325 239.925 329.3 240.2C329.21 241.38 330.03 242.2 331.41 242.3C331.692 242.357 331.984 242.355 332.265 242.294C332.547 242.233 332.812 242.114 333.046 241.945C333.279 241.776 333.474 241.56 333.62 241.311C333.765 241.062 333.857 240.786 333.89 240.5H333.86Z" fill="#FAFAFA"/>
<path d="M344.45 238.63L343.79 247.63L342.87 247.57L343.46 239.42L341.35 239.26L341.41 238.44L344.45 238.63Z" fill="#FAFAFA"/>
<path d="M353.08 247.45L353.02 248.27L346.73 247.82V247.16L350.73 243.78C351.81 242.86 352.05 242.27 352.1 241.65C352.17 240.65 351.49 239.92 350.1 239.82C349.646 239.761 349.183 239.803 348.747 239.945C348.311 240.087 347.913 240.324 347.58 240.64L347 240C347.433 239.593 347.951 239.288 348.517 239.106C349.082 238.925 349.681 238.871 350.27 238.95C352.09 239.08 353.18 240.09 353.07 241.59C353.01 242.45 352.68 243.2 351.39 244.29L348.13 247.07L353.08 247.45Z" fill="#FAFAFA"/>
<path d="M361.25 246.29C361.14 247.78 359.97 248.86 357.81 248.7C356.621 248.658 355.493 248.16 354.66 247.31L355.16 246.61C355.508 246.985 355.927 247.287 356.392 247.5C356.857 247.713 357.359 247.832 357.87 247.85C359.35 247.96 360.22 247.33 360.31 246.22C360.4 245.11 359.68 244.38 358.01 244.22H357.37L357.42 243.54L360.14 240.61L355.55 240.28L355.61 239.46L361.37 239.88V240.53L358.6 243.53C360.47 243.77 361.36 244.85 361.25 246.29Z" fill="#FAFAFA"/>
<path d="M291.638 250.498L291.355 254.398L363.215 259.625L363.498 255.725L291.638 250.498Z" fill="#FAFAFA"/>
<path d="M326.087 260.833L325.803 264.733L362.656 267.413L362.94 263.514L326.087 260.833Z" fill="#FAFAFA"/>
<path d="M248.228 201.253L227.971 199.776C225.239 199.577 222.863 201.63 222.664 204.362L221.743 216.989C221.544 219.721 223.597 222.097 226.329 222.296L246.586 223.773C249.318 223.972 251.694 221.919 251.893 219.187L252.814 206.56C253.013 203.828 250.96 201.452 248.228 201.253Z" fill="#455A64"/>
<path d="M221.85 215.69L221.96 214.25L237.48 215.38C237.914 215.425 238.353 215.382 238.77 215.254C239.188 215.126 239.575 214.915 239.909 214.635C240.244 214.354 240.518 214.01 240.717 213.621C240.916 213.232 241.034 212.808 241.066 212.372C241.097 211.937 241.041 211.5 240.9 211.087C240.76 210.673 240.537 210.293 240.247 209.967C239.956 209.641 239.603 209.377 239.209 209.191C238.814 209.004 238.386 208.898 237.95 208.88L222.43 207.75L222.53 206.3L238.06 207.43C239.275 207.56 240.392 208.156 241.175 209.093C241.958 210.03 242.347 211.235 242.259 212.454C242.17 213.672 241.612 214.808 240.702 215.623C239.792 216.438 238.601 216.867 237.38 216.82L221.85 215.69Z" fill="#9CDEAD"/>
<path d="M241.738 211.688L241.631 213.134L252.282 213.92L252.389 212.474L241.738 211.688Z" fill="#9CDEAD"/>
<path d="M305.486 186.777L227.942 181.123L227.457 187.776L305.001 193.429L305.486 186.777Z" fill="#FAFAFA"/>
<path d="M408.5 158.32C407.607 159.229 406.919 160.319 406.483 161.516C406.046 162.713 405.872 163.99 405.97 165.26C406.19 167.802 407.016 170.254 408.38 172.41" fill="#263238"/>
<path d="M430.33 197.41L431.69 166.08L419.12 156.56L407.7 162.14C407.7 162.14 407.32 176.48 407.7 182.7C408.08 188.92 414.35 189.58 414.35 189.58C414.35 189.58 414.17 193.01 413.97 196.58C413.857 198.726 414.592 200.831 416.015 202.441C417.438 204.051 419.436 205.038 421.58 205.19V205.19C422.668 205.266 423.76 205.124 424.793 204.772C425.825 204.42 426.776 203.865 427.591 203.14C428.406 202.416 429.069 201.536 429.539 200.551C430.009 199.567 430.278 198.499 430.33 197.41V197.41Z" fill="#FFBE9D"/>
<path d="M409.74 172.6C409.74 172.758 409.787 172.913 409.875 173.044C409.963 173.176 410.088 173.279 410.234 173.339C410.38 173.4 410.541 173.416 410.696 173.385C410.851 173.354 410.994 173.278 411.106 173.166C411.218 173.054 411.294 172.911 411.325 172.756C411.355 172.601 411.34 172.44 411.279 172.294C411.219 172.148 411.116 172.023 410.984 171.935C410.853 171.847 410.698 171.8 410.54 171.8C410.435 171.8 410.331 171.821 410.234 171.861C410.137 171.901 410.049 171.96 409.974 172.034C409.9 172.109 409.841 172.197 409.801 172.294C409.761 172.391 409.74 172.495 409.74 172.6V172.6Z" fill="#263238"/>
<path d="M408.18 171.73C408.28 171.83 408.87 171.33 409.72 171.28C410.57 171.23 411.22 171.65 411.31 171.54C411.4 171.43 411.25 171.3 410.97 171.1C410.591 170.852 410.141 170.736 409.69 170.77C409.24 170.791 408.81 170.964 408.47 171.26C408.21 171.48 408.13 171.68 408.18 171.73Z" fill="#263238"/>
<path d="M419 172.6C419 172.81 419.083 173.01 419.231 173.159C419.38 173.307 419.581 173.39 419.79 173.39C419.949 173.392 420.105 173.346 420.238 173.259C420.371 173.172 420.475 173.047 420.537 172.901C420.599 172.754 420.616 172.593 420.585 172.436C420.555 172.28 420.478 172.137 420.366 172.024C420.253 171.912 420.11 171.835 419.954 171.805C419.798 171.774 419.636 171.791 419.489 171.853C419.343 171.915 419.218 172.019 419.131 172.152C419.044 172.285 418.998 172.441 419 172.6V172.6Z" fill="#263238"/>
<path d="M417.68 171.73C417.78 171.83 418.37 171.33 419.22 171.28C420.07 171.23 420.72 171.65 420.81 171.54C420.9 171.43 420.75 171.3 420.47 171.1C420.091 170.853 419.641 170.737 419.19 170.77C418.737 170.793 418.305 170.965 417.96 171.26C417.71 171.48 417.63 171.68 417.68 171.73Z" fill="#263238"/>
<path d="M417.41 179.78C416.102 180.441 414.709 180.919 413.27 181.2C413.588 181.63 414.038 181.942 414.552 182.088C415.066 182.235 415.614 182.207 416.11 182.01C416.347 181.957 416.57 181.856 416.765 181.713C416.961 181.57 417.125 181.388 417.247 181.179C417.369 180.969 417.446 180.737 417.474 180.496C417.502 180.256 417.481 180.012 417.41 179.78V179.78Z" fill="#FAFAFA"/>
<path d="M414.35 189.58C417.306 189.459 420.165 188.494 422.59 186.8C422.59 186.8 420.72 191.37 414.49 191.11L414.35 189.58Z" fill="#EB996E"/>
<path d="M414.58 179C414.122 178.889 413.652 178.831 413.18 178.83C412.96 178.83 412.75 178.83 412.7 178.63C412.673 178.389 412.718 178.145 412.83 177.93C413.01 177.37 413.21 176.78 413.41 176.16C413.82 174.89 414.17 173.75 414.41 172.91C414.577 172.467 414.681 172.002 414.72 171.53C414.49 171.941 414.308 172.377 414.18 172.83C413.88 173.65 413.49 174.83 413.08 176.05C412.89 176.68 412.7 177.27 412.52 177.84C412.397 178.12 412.369 178.433 412.44 178.73C412.47 178.808 412.518 178.876 412.581 178.931C412.644 178.985 412.719 179.022 412.8 179.04C412.923 179.058 413.047 179.058 413.17 179.04C413.64 179.092 414.114 179.078 414.58 179V179Z" fill="#263238"/>
<path d="M430.77 177.22C430.67 176.184 430.786 175.139 431.11 174.15C431.271 173.656 431.564 173.215 431.957 172.875C432.35 172.535 432.828 172.309 433.34 172.22C433.932 172.191 434.515 172.377 434.981 172.745C435.446 173.113 435.762 173.637 435.87 174.22C435.944 174.817 435.836 175.422 435.561 175.957C435.287 176.492 434.858 176.932 434.33 177.22C433.797 177.493 433.209 177.643 432.61 177.659C432.011 177.674 431.417 177.555 430.87 177.31" fill="#FFBE9D"/>
<path d="M432.59 176.31C432.59 176.24 432.92 176.4 433.36 176.26C433.634 176.166 433.871 175.987 434.038 175.75C434.205 175.513 434.293 175.23 434.29 174.94C434.317 174.794 434.312 174.644 434.274 174.5C434.236 174.357 434.166 174.223 434.07 174.11C433.875 173.963 433.634 173.891 433.39 173.91C432.93 173.91 432.6 174.07 432.57 174C432.54 173.93 432.78 173.71 433.34 173.55C433.511 173.509 433.689 173.506 433.862 173.541C434.035 173.575 434.198 173.647 434.34 173.75C434.505 173.906 434.63 174.099 434.705 174.313C434.779 174.527 434.802 174.756 434.77 174.98C434.744 175.406 434.583 175.812 434.31 176.14C434.071 176.406 433.745 176.576 433.39 176.62C432.82 176.68 432.53 176.35 432.59 176.31Z" fill="#EB996E"/>
<path d="M407.79 158.93C405.03 162.36 408.71 164.52 410.54 165.93C411.95 167.03 416.11 169.93 419.76 168.56C418.47 166.83 417 166.07 416.43 164.42C417.92 166.52 419.49 168.11 422.05 168.37C421.54 166.88 420.82 163.85 421.37 163.73C422.05 169.65 427.6 174.63 431.42 172.73C432.136 170.868 432.403 168.863 432.198 166.879C431.993 164.894 431.322 162.986 430.24 161.31C429.132 159.652 427.691 158.241 426.009 157.169C424.328 156.097 422.441 155.385 420.47 155.08C418.207 154.736 415.896 154.898 413.703 155.555C411.51 156.212 409.491 157.348 407.79 158.88" fill="#263238"/>
<path d="M434 177.79C434 177.73 434.47 178.18 434.28 179.03C434.222 179.276 434.109 179.505 433.95 179.701C433.791 179.896 433.589 180.053 433.36 180.16C433.076 180.29 432.764 180.351 432.452 180.339C432.139 180.327 431.834 180.242 431.56 180.09C431.291 179.929 431.062 179.71 430.889 179.448C430.716 179.187 430.604 178.89 430.56 178.58C430.499 178.082 430.627 177.578 430.92 177.17C431.42 176.49 431.98 176.42 431.98 176.47C431.98 176.52 431.57 176.75 431.23 177.37C431.036 177.716 430.969 178.12 431.04 178.51C431.077 178.741 431.163 178.961 431.293 179.156C431.422 179.351 431.592 179.516 431.79 179.64C431.993 179.752 432.219 179.818 432.45 179.833C432.682 179.849 432.914 179.814 433.13 179.73C433.308 179.656 433.468 179.546 433.601 179.406C433.733 179.267 433.835 179.101 433.9 178.92C434.006 178.553 434.04 178.17 434 177.79Z" fill="#9CDEAD"/>
<path d="M390.77 229.31L400.15 227.36L403 243.14C400.589 251.227 398.586 259.431 397 267.72L419 281.45L422.39 275.01L427.82 280.17L451.23 267.72C448.34 252.72 441.04 248.8 441.04 246.36C441.04 239.36 440.04 246.16 445.91 222.97C451.78 199.78 430.36 197.41 430.36 197.41C430.36 197.41 430.84 200.65 413.8 197.56C407.56 196.43 382.65 209.51 382.65 209.51L390.77 229.31Z" fill="#9CDEAD"/>
<path d="M413.77 197.56C413.77 197.56 413.57 214.72 417.66 213.56C421.75 212.4 429.99 205.07 430.33 197.37L413.77 197.56Z" fill="#FFBE9D"/>
<path d="M414.81 227.63C414.759 225.597 414.877 223.564 415.16 221.55C415.279 219.528 415.573 217.521 416.04 215.55C416.09 217.587 415.97 219.624 415.68 221.64C415.564 223.658 415.272 225.662 414.81 227.63V227.63Z" fill="#263238"/>
<path d="M417.42 226.24C417.118 224.635 416.988 223.003 417.03 221.37C416.904 219.74 416.947 218.101 417.16 216.48C417.461 218.089 417.591 219.724 417.55 221.36C417.688 222.986 417.644 224.623 417.42 226.24Z" fill="#263238"/>
<path d="M413.75 229.31C413.61 229.31 413.51 228.87 413.75 228.38C413.99 227.89 414.38 227.67 414.47 227.78C414.56 227.89 414.4 228.21 414.23 228.59C414.06 228.97 413.9 229.32 413.75 229.31Z" fill="#263238"/>
<path d="M414.31 229.31C414.17 229.31 414.12 228.95 414.19 228.56C414.26 228.17 414.45 227.89 414.59 227.92C414.73 227.95 414.78 228.28 414.71 228.67C414.64 229.06 414.45 229.34 414.31 229.31Z" fill="#263238"/>
<path d="M414.84 229.32C414.7 229.32 414.55 229.03 414.51 228.64C414.47 228.25 414.56 227.93 414.71 227.92C414.86 227.91 415 228.21 415.03 228.59C415.06 228.97 415 229.3 414.84 229.32Z" fill="#263238"/>
<path d="M415.71 229.59C415.56 229.59 415.45 229.09 415.19 228.59C414.93 228.09 414.63 227.65 414.73 227.53C414.83 227.41 415.36 227.71 415.67 228.37C415.98 229.03 415.85 229.6 415.71 229.59Z" fill="#263238"/>
<path d="M417.52 227.78C417.39 227.83 417.12 227.4 417.12 226.78C417.12 226.16 417.39 225.78 417.52 225.78C417.65 225.78 417.64 226.25 417.64 226.78C417.64 227.31 417.66 227.73 417.52 227.78Z" fill="#263238"/>
<path d="M418.06 227.5C417.92 227.5 417.77 227.18 417.73 226.76C417.69 226.34 417.73 225.98 417.92 225.97C418.11 225.96 418.21 226.29 418.25 226.71C418.29 227.13 418.2 227.49 418.06 227.5Z" fill="#263238"/>
<path d="M418.91 227.36C418.8 227.45 418.49 227.24 418.22 226.89C417.95 226.54 417.82 226.19 417.94 226.11C418.06 226.03 418.36 226.23 418.63 226.57C418.9 226.91 419 227.27 418.91 227.36Z" fill="#263238"/>
<path d="M419.19 227.08C419.06 227.14 418.81 226.88 418.49 226.6C418.17 226.32 417.89 226.11 417.94 225.97C417.99 225.83 418.44 225.85 418.84 226.21C419.24 226.57 419.32 227 419.19 227.08Z" fill="#263238"/>
<path d="M412.52 199.45C412.52 199.39 412.82 199.24 413.17 199.56C413.248 199.65 413.305 199.756 413.339 199.871C413.372 199.985 413.381 200.105 413.365 200.223C413.349 200.341 413.307 200.454 413.244 200.555C413.18 200.656 413.096 200.742 412.997 200.808C412.897 200.874 412.785 200.918 412.667 200.937C412.55 200.956 412.429 200.95 412.314 200.918C412.199 200.887 412.092 200.832 412 200.757C411.908 200.681 411.833 200.587 411.78 200.48C411.733 200.348 411.719 200.206 411.738 200.067C411.757 199.928 411.809 199.795 411.89 199.68C412.18 199.3 412.53 199.39 412.51 199.45C412.49 199.51 412.31 199.6 412.21 199.87C412.11 200.14 412.21 200.5 412.62 200.45C413.03 200.4 413.06 200.05 412.9 199.8C412.74 199.55 412.53 199.53 412.52 199.45Z" fill="#263238"/>
<path d="M412.92 202.68C412.83 202.79 412.55 202.68 412.28 202.54C412.01 202.4 411.86 202.1 411.94 201.98C412.02 201.86 412.31 201.92 412.58 202.12C412.85 202.32 413 202.56 412.92 202.68Z" fill="#263238"/>
<path d="M413.18 203.36C413.3 203.45 413.18 203.8 412.78 203.95C412.38 204.1 412.05 203.95 412.08 203.8C412.11 203.65 412.34 203.57 412.59 203.47C412.84 203.37 413.07 203.27 413.18 203.36Z" fill="#263238"/>
<path d="M413.2 205.05C413.31 205.14 413.2 205.4 413.05 205.63C412.9 205.86 412.61 205.98 412.5 205.88C412.39 205.78 412.45 205.53 412.65 205.3C412.85 205.07 413.08 205 413.2 205.05Z" fill="#263238"/>
<path d="M412.77 206.88C412.77 206.82 413.17 206.68 413.64 207.11C413.772 207.236 413.867 207.396 413.915 207.572C413.962 207.749 413.961 207.935 413.91 208.11C413.843 208.341 413.704 208.545 413.513 208.692C413.323 208.84 413.091 208.923 412.85 208.93C412.613 208.912 412.388 208.819 412.208 208.665C412.029 208.51 411.903 208.302 411.85 208.07C411.806 207.877 411.826 207.675 411.908 207.495C411.989 207.314 412.127 207.165 412.3 207.07C412.88 206.75 413.3 207.07 413.2 207.12C413.1 207.17 412.84 207.12 412.51 207.37C412.423 207.435 412.357 207.526 412.323 207.63C412.289 207.734 412.288 207.846 412.32 207.95C412.361 208.074 412.438 208.183 412.542 208.263C412.645 208.343 412.77 208.391 412.9 208.4C413.025 208.392 413.145 208.35 413.248 208.278C413.35 208.207 413.432 208.109 413.483 207.995C413.534 207.881 413.554 207.755 413.539 207.631C413.525 207.507 413.476 207.389 413.4 207.29C413.1 207 412.76 207 412.77 206.88Z" fill="#263238"/>
<path d="M413.89 209.79C413.96 209.92 413.74 210.16 413.5 210.43C413.26 210.7 413.06 210.95 412.92 210.9C412.78 210.85 412.8 210.45 413.11 210.09C413.42 209.73 413.83 209.66 413.89 209.79Z" fill="#263238"/>
<path d="M414.45 211.6C414.58 211.65 414.56 212.05 414.25 212.41C413.94 212.77 413.54 212.84 413.47 212.72C413.4 212.6 413.62 212.34 413.86 212.07C414.1 211.8 414.31 211.55 414.45 211.6Z" fill="#263238"/>
<path d="M414.75 214.53C414.61 214.53 414.46 214.21 414.43 213.78C414.4 213.35 414.43 213.01 414.62 212.99C414.81 212.97 414.91 213.31 414.94 213.74C414.97 214.17 414.9 214.52 414.75 214.53Z" fill="#263238"/>
<path d="M419.61 215C419.54 215.12 419.26 215.1 418.99 215C418.72 214.9 418.56 214.62 418.63 214.49C418.7 214.36 418.98 214.39 419.25 214.54C419.52 214.69 419.68 214.82 419.61 215Z" fill="#263238"/>
<path d="M421.3 213C421.4 213.1 421.23 213.43 420.93 213.74C420.63 214.05 420.29 214.22 420.19 214.12C420.09 214.02 420.25 213.69 420.56 213.38C420.87 213.07 421.19 212.91 421.3 213Z" fill="#263238"/>
<path d="M422.68 211.88C422.68 211.8 422.94 211.76 423.32 211.77H423.37L423.44 211.83C423.53 211.918 423.597 212.028 423.633 212.148C423.67 212.269 423.676 212.397 423.65 212.52C423.622 212.677 423.544 212.821 423.426 212.93C423.309 213.038 423.159 213.105 423 213.12C422.83 213.137 422.659 213.098 422.513 213.01C422.367 212.921 422.254 212.788 422.19 212.63C422.138 212.505 422.125 212.367 422.153 212.235C422.182 212.102 422.251 211.982 422.35 211.89C422.68 211.59 422.99 211.74 422.95 211.8C422.91 211.86 422.75 211.9 422.64 212.12C422.613 212.169 422.599 212.224 422.599 212.28C422.599 212.336 422.613 212.391 422.64 212.44C422.676 212.493 422.726 212.536 422.784 212.564C422.842 212.592 422.906 212.604 422.97 212.6C423.18 212.6 423.28 212.23 423.17 212.1L423.29 212.16C422.9 212.06 422.67 212 422.68 211.88Z" fill="#263238"/>
<path d="M424.11 211.61C423.97 211.61 423.91 211.24 423.99 210.86C424.07 210.48 424.25 210.19 424.39 210.21C424.53 210.23 424.58 210.58 424.5 210.96C424.42 211.34 424.25 211.64 424.11 211.61Z" fill="#263238"/>
<path d="M426.3 210.07C426.25 210.2 425.92 210.18 425.57 210.07C425.22 209.96 424.99 209.68 425.05 209.55C425.11 209.42 425.44 209.44 425.78 209.55C426.12 209.66 426.36 209.94 426.3 210.07Z" fill="#263238"/>
<path d="M426.55 208.17C426.61 208.17 426.6 208.35 426.72 208.48C426.84 208.61 426.99 208.64 427.1 208.48C427.21 208.32 427.1 208.2 426.94 208.14C426.78 208.08 426.64 208.14 426.58 208.14C426.52 208.14 426.58 207.86 426.92 207.79C427.026 207.77 427.135 207.778 427.237 207.813C427.338 207.848 427.429 207.909 427.5 207.99C427.592 208.097 427.646 208.231 427.655 208.372C427.664 208.512 427.627 208.652 427.55 208.77C427.48 208.894 427.373 208.992 427.243 209.049C427.113 209.107 426.968 209.121 426.83 209.09C426.727 209.064 426.632 209.011 426.555 208.938C426.478 208.864 426.421 208.772 426.39 208.67C426.29 208.29 426.5 208.12 426.55 208.17Z" fill="#263238"/>
<path d="M428.08 206.59C427.94 206.59 427.77 206.49 427.69 206.26C427.61 206.03 427.69 205.81 427.79 205.76C427.89 205.71 428.1 205.86 428.18 206.09C428.26 206.32 428.21 206.55 428.08 206.59Z" fill="#263238"/>
<path d="M429.51 205.19C429.44 205.31 429.16 205.29 428.89 205.13C428.62 204.97 428.46 204.75 428.54 204.63C428.62 204.51 428.88 204.53 429.15 204.68C429.42 204.83 429.58 205.06 429.51 205.19Z" fill="#263238"/>
<path d="M430.49 203.09C430.55 203.23 430.31 203.46 429.97 203.61C429.63 203.76 429.29 203.78 429.23 203.61C429.17 203.44 429.41 203.25 429.75 203.1C430.09 202.95 430.43 203 430.49 203.09Z" fill="#263238"/>
<path d="M430.94 200.58C430.94 200.53 431.13 200.34 431.47 200.52C431.568 200.576 431.65 200.656 431.71 200.752C431.769 200.848 431.803 200.957 431.81 201.07C431.814 201.219 431.771 201.365 431.686 201.487C431.602 201.609 431.48 201.701 431.34 201.75C431.204 201.808 431.053 201.821 430.909 201.787C430.765 201.753 430.635 201.673 430.54 201.56C430.468 201.472 430.42 201.367 430.401 201.254C430.382 201.142 430.392 201.027 430.43 200.92C430.56 200.57 430.84 200.55 430.85 200.62C430.86 200.69 430.77 200.8 430.79 200.99C430.81 201.18 430.93 201.35 431.15 201.27C431.37 201.19 431.37 200.99 431.24 200.82C431.11 200.65 431 200.65 430.94 200.58Z" fill="#263238"/>
<path d="M432.31 198.39C432.31 198.53 432.09 198.71 431.74 198.79C431.39 198.87 431.09 198.79 431.06 198.68C431.03 198.57 431.28 198.36 431.63 198.28C431.98 198.2 432.28 198.25 432.31 198.39Z" fill="#263238"/>
<path d="M430.91 197.66L431.46 197.24Z" fill="#263238"/>
<path d="M385.49 211.92C385.36 211.92 385.31 211.63 385.4 211.37C385.49 211.11 385.66 210.94 385.79 210.98C385.92 211.02 385.97 211.27 385.89 211.53C385.81 211.79 385.63 212 385.49 211.92Z" fill="#263238"/>
<path d="M386.69 213.37C386.69 213.31 386.87 213.12 387.23 213.28C387.354 213.335 387.459 213.425 387.533 213.538C387.607 213.652 387.647 213.784 387.647 213.92C387.647 214.056 387.607 214.188 387.533 214.302C387.459 214.415 387.354 214.505 387.23 214.56C387.097 214.634 386.945 214.664 386.794 214.646C386.643 214.628 386.502 214.563 386.39 214.46C386.307 214.38 386.246 214.28 386.211 214.17C386.176 214.06 386.169 213.943 386.19 213.83C386.26 213.44 386.55 213.38 386.57 213.44C386.59 213.5 386.51 213.64 386.57 213.84C386.63 214.04 386.77 214.22 387.02 214.1C387.27 213.98 387.22 213.76 387.02 213.59C386.82 213.42 386.72 213.44 386.69 213.37Z" fill="#263238"/>
<path d="M388.18 216.64C388.12 216.77 387.81 216.77 387.48 216.64C387.15 216.51 386.94 216.29 386.99 216.16C387.04 216.03 387.36 216.03 387.69 216.16C388.02 216.29 388.23 216.51 388.18 216.64Z" fill="#263238"/>
<path d="M388.55 218.64C388.5 218.78 388.26 218.82 388 218.74C387.74 218.66 387.57 218.48 387.61 218.34C387.65 218.2 387.9 218.16 388.16 218.25C388.42 218.34 388.59 218.51 388.55 218.64Z" fill="#263238"/>
<path d="M389.16 220C389.28 220.07 389.25 220.36 389.08 220.64C388.91 220.92 388.68 221.1 388.56 221.02C388.44 220.94 388.47 220.66 388.63 220.38C388.79 220.1 389 220 389.16 220Z" fill="#263238"/>
<path d="M389.52 221.39C389.45 221.39 389.69 221.02 390.2 221.16C390.346 221.201 390.48 221.277 390.59 221.382C390.699 221.486 390.782 221.616 390.83 221.76C390.888 221.962 390.866 222.178 390.769 222.364C390.672 222.55 390.508 222.691 390.31 222.76C390.131 222.832 389.934 222.851 389.744 222.814C389.554 222.776 389.379 222.685 389.24 222.55C389.128 222.421 389.067 222.256 389.067 222.085C389.067 221.914 389.128 221.749 389.24 221.62C389.281 221.578 389.33 221.545 389.384 221.522C389.438 221.499 389.496 221.487 389.555 221.487C389.614 221.487 389.672 221.499 389.726 221.522C389.78 221.545 389.829 221.578 389.87 221.62C389.98 221.75 389.93 221.85 389.87 221.85C389.81 221.85 389.79 221.85 389.72 221.79C389.65 221.73 389.51 221.79 389.5 221.87C389.477 221.932 389.474 222 389.49 222.064C389.506 222.128 389.541 222.186 389.59 222.23C389.666 222.284 389.755 222.318 389.847 222.329C389.94 222.339 390.034 222.326 390.12 222.29C390.53 222.14 390.36 221.68 390.06 221.53C389.76 221.38 389.57 221.45 389.52 221.39Z" fill="#263238"/>
<path d="M391 224C391.1 224.1 391 224.33 390.82 224.51C390.64 224.69 390.39 224.73 390.29 224.63C390.19 224.53 390.29 224.29 390.47 224.12C390.65 223.95 390.87 223.87 391 224Z" fill="#263238"/>
<path d="M391.54 225.72C391.65 225.82 391.54 226.07 391.37 226.28C391.2 226.49 390.92 226.59 390.81 226.49C390.7 226.39 390.81 226.14 390.99 225.93C391.17 225.72 391.44 225.62 391.54 225.72Z" fill="#263238"/>
<path d="M401.75 270.25C401.63 270.32 401.36 270.09 401.17 269.73C400.98 269.37 400.91 269.03 401.03 268.96C401.15 268.89 401.42 269.12 401.62 269.48C401.82 269.84 401.88 270.18 401.75 270.25Z" fill="#263238"/>
<path d="M402.62 270.25C402.49 270.31 402.25 270.07 402.09 269.71C401.93 269.35 401.91 269.02 402.09 268.96C402.27 268.9 402.46 269.14 402.62 269.5C402.78 269.86 402.75 270.19 402.62 270.25Z" fill="#263238"/>
<path d="M403.85 270.9C403.85 270.96 403.85 271.07 403.85 271.22C403.85 271.37 404 271.43 404.14 271.35C404.28 271.27 404.27 271.16 404.14 271.03C404.01 270.9 403.91 270.92 403.87 270.85C403.83 270.78 403.99 270.6 404.31 270.7C404.422 270.735 404.521 270.803 404.595 270.894C404.668 270.986 404.713 271.098 404.722 271.215C404.732 271.332 404.707 271.449 404.649 271.552C404.592 271.654 404.505 271.737 404.4 271.79C404.293 271.868 404.163 271.91 404.03 271.91C403.897 271.91 403.768 271.868 403.66 271.79C403.586 271.723 403.53 271.638 403.497 271.544C403.463 271.45 403.454 271.349 403.47 271.25C403.58 270.88 403.83 270.83 403.85 270.9Z" fill="#263238"/>
<path d="M406.93 271.55C407.02 271.66 406.83 271.95 406.51 272.19C406.19 272.43 405.87 272.53 405.78 272.41C405.69 272.29 405.88 272.01 406.2 271.77C406.52 271.53 406.85 271.43 406.93 271.55Z" fill="#263238"/>
<path d="M407.94 272.55C408 272.68 407.86 272.88 407.63 273C407.4 273.12 407.14 273.11 407.08 273C407.02 272.89 407.15 272.67 407.39 272.55C407.63 272.43 407.88 272.43 407.94 272.55Z" fill="#263238"/>
<path d="M409.36 274.14C409.21 274.14 409.07 273.95 409.02 273.67C408.97 273.39 409.07 273.15 409.21 273.13C409.35 273.11 409.5 273.32 409.54 273.6C409.58 273.88 409.5 274.12 409.36 274.14Z" fill="#263238"/>
<path d="M411.65 274.11C411.65 274.17 411.59 274.3 411.65 274.5C411.71 274.7 411.84 274.84 412.06 274.71C412.28 274.58 412.22 274.39 412.06 274.25C411.9 274.11 411.74 274.15 411.7 274.09C411.66 274.03 411.82 273.81 412.2 273.91C412.311 273.94 412.413 273.998 412.495 274.078C412.578 274.159 412.638 274.259 412.67 274.37C412.704 274.518 412.69 274.672 412.632 274.812C412.574 274.952 412.473 275.071 412.345 275.151C412.216 275.231 412.065 275.269 411.914 275.26C411.763 275.251 411.618 275.195 411.5 275.1C411.414 275.024 411.35 274.927 411.313 274.818C411.276 274.709 411.268 274.593 411.29 274.48C411.34 274.09 411.63 274 411.65 274.11Z" fill="#263238"/>
<path d="M414.37 275.16C414.47 275.27 414.32 275.55 414.04 275.79C413.76 276.03 413.46 276.14 413.37 276.03C413.28 275.92 413.42 275.64 413.7 275.4C413.98 275.16 414.28 275.05 414.37 275.16Z" fill="#263238"/>
<path d="M416.17 276.23C416.27 276.33 416.11 276.64 415.74 276.81C415.37 276.98 415.02 276.89 415.01 276.74C415 276.59 415.24 276.46 415.52 276.33C415.8 276.2 416.06 276.12 416.17 276.23Z" fill="#263238"/>
<path d="M417.53 278.18C417.39 278.23 417.21 278.07 417.13 277.83C417.05 277.59 417.13 277.36 417.23 277.32C417.33 277.28 417.55 277.43 417.63 277.67C417.71 277.91 417.66 278.14 417.53 278.18Z" fill="#263238"/>
<path d="M419.07 277.26C419.01 277.26 419.13 276.96 419.51 276.98C419.625 276.989 419.735 277.029 419.828 277.096C419.921 277.163 419.995 277.254 420.04 277.36C420.096 277.503 420.099 277.662 420.047 277.807C419.996 277.952 419.894 278.074 419.76 278.15C419.63 278.235 419.474 278.271 419.32 278.251C419.166 278.231 419.024 278.156 418.92 278.04C418.85 277.946 418.808 277.834 418.8 277.717C418.791 277.6 418.815 277.484 418.87 277.38C419.06 277.04 419.38 277.11 419.35 277.18C419.32 277.25 419.23 277.33 419.22 277.51C419.21 277.69 419.3 277.81 419.49 277.7C419.68 277.59 419.61 277.45 419.43 277.34C419.25 277.23 419.13 277.31 419.07 277.26Z" fill="#263238"/>
<path d="M420.51 275.86C420.39 275.94 420.18 275.86 420.04 275.65C419.9 275.44 419.89 275.22 420.04 275.14C420.19 275.06 420.37 275.14 420.51 275.35C420.65 275.56 420.63 275.78 420.51 275.86Z" fill="#263238"/>
<path d="M421.22 274.71C421.12 274.81 420.91 274.77 420.75 274.61C420.59 274.45 420.54 274.24 420.64 274.14C420.74 274.04 420.96 274.08 421.12 274.24C421.28 274.4 421.32 274.61 421.22 274.71Z" fill="#263238"/>
<path d="M422 272.51C421.93 272.51 422.08 272.24 422.39 272.35C422.483 272.382 422.564 272.441 422.623 272.519C422.681 272.598 422.715 272.692 422.72 272.79C422.71 272.913 422.663 273.029 422.584 273.123C422.505 273.217 422.399 273.284 422.28 273.315C422.161 273.346 422.035 273.339 421.921 273.295C421.806 273.251 421.708 273.172 421.64 273.07C421.598 272.992 421.576 272.904 421.576 272.815C421.576 272.726 421.598 272.639 421.64 272.56C421.76 272.3 421.98 272.29 422 272.35C422.02 272.41 422 272.52 422 272.65C422.004 272.707 422.029 272.76 422.07 272.8C422.07 272.8 422.12 272.8 422.18 272.8C422.21 272.803 422.24 272.803 422.27 272.8C422.27 272.8 422.27 272.73 422.27 272.69C422.27 272.65 422.08 272.56 422 272.51Z" fill="#263238"/>
<path d="M423.6 274.14C423.527 274.109 423.468 274.052 423.435 273.98C423.402 273.908 423.396 273.826 423.42 273.75C423.424 273.711 423.435 273.673 423.454 273.638C423.473 273.604 423.499 273.574 423.529 273.549C423.56 273.525 423.596 273.507 423.634 273.497C423.672 273.487 423.711 273.484 423.75 273.49C423.824 273.517 423.884 273.572 423.918 273.643C423.952 273.714 423.956 273.796 423.93 273.87C423.92 273.949 423.88 274.021 423.819 274.071C423.758 274.121 423.679 274.146 423.6 274.14V274.14Z" fill="#263238"/>
<path d="M424.33 275C424.274 274.945 424.234 274.876 424.213 274.801C424.192 274.726 424.191 274.646 424.21 274.57C424.21 274.41 424.33 274.24 424.47 274.21C424.61 274.18 424.78 274.38 424.73 274.66C424.68 274.94 424.44 275.09 424.33 275Z" fill="#263238"/>
<path d="M425.34 276.16C425.285 276.219 425.215 276.262 425.137 276.283C425.059 276.304 424.977 276.303 424.9 276.28C424.73 276.28 424.57 276.15 424.54 276.01C424.51 275.87 424.72 275.71 425 275.76C425.28 275.81 425.41 276 425.34 276.16Z" fill="#263238"/>
<path d="M426.16 277.14C426.11 277.09 426.24 276.89 426.55 276.94C426.646 276.96 426.736 277.003 426.811 277.066C426.886 277.129 426.944 277.209 426.98 277.3C427.016 277.428 427.009 277.564 426.96 277.687C426.911 277.81 426.822 277.914 426.708 277.981C426.594 278.049 426.46 278.076 426.328 278.06C426.197 278.043 426.074 277.984 425.98 277.89C425.922 277.806 425.891 277.707 425.891 277.605C425.891 277.503 425.922 277.404 425.98 277.32C426.14 277.02 426.42 277.1 426.39 277.17C426.36 277.24 426.31 277.31 426.32 277.44C426.33 277.57 426.32 277.57 426.38 277.57C426.44 277.57 426.38 277.57 426.48 277.57C426.58 277.57 426.55 277.51 426.56 277.48C426.55 277.421 426.518 277.367 426.47 277.33C426.32 277.2 426.2 277.2 426.16 277.14Z" fill="#263238"/>
<path d="M427.44 279.12C427.365 279.099 427.3 279.05 427.259 278.983C427.219 278.916 427.205 278.837 427.22 278.76C427.22 278.58 427.37 278.45 427.51 278.47C427.549 278.477 427.585 278.492 427.618 278.514C427.65 278.535 427.678 278.563 427.7 278.596C427.721 278.629 427.736 278.665 427.743 278.704C427.75 278.742 427.749 278.782 427.74 278.82C427.738 278.899 427.705 278.974 427.649 279.029C427.594 279.085 427.519 279.118 427.44 279.12V279.12Z" fill="#263238"/>
<path d="M429.38 278.09C429.38 278.23 429.1 278.3 428.82 278.23C428.54 278.16 428.34 278 428.37 277.86C428.4 277.72 428.66 277.66 428.94 277.72C429.22 277.78 429.41 278 429.38 278.09Z" fill="#263238"/>
<path d="M430.11 277.74C429.97 277.74 429.84 277.61 429.82 277.41C429.8 277.21 429.9 277.03 430.05 277.02C430.2 277.01 430.32 277.16 430.34 277.36C430.36 277.56 430.26 277.73 430.11 277.74Z" fill="#263238"/>
<path d="M431.47 276.66C431.33 276.66 431.21 276.5 431.21 276.3C431.21 276.1 431.33 275.94 431.47 275.94C431.61 275.94 431.73 276.1 431.73 276.3C431.73 276.5 431.62 276.66 431.47 276.66Z" fill="#263238"/>
<path d="M432.52 275.19C432.52 275.14 432.7 274.94 433.03 275.14C433.127 275.2 433.204 275.286 433.252 275.389C433.3 275.493 433.317 275.608 433.3 275.72C433.273 275.871 433.19 276.006 433.068 276.099C432.946 276.192 432.793 276.235 432.64 276.22C432.503 276.232 432.366 276.194 432.254 276.114C432.142 276.035 432.062 275.917 432.028 275.784C431.995 275.651 432.01 275.51 432.07 275.386C432.131 275.263 432.234 275.165 432.36 275.11C432.7 274.94 432.91 275.17 432.85 275.22C432.79 275.27 432.67 275.22 432.57 275.41C432.543 275.437 432.523 275.47 432.511 275.507C432.498 275.543 432.495 275.582 432.5 275.62C432.5 275.62 432.56 275.69 432.66 275.7C432.76 275.71 432.81 275.7 432.83 275.63C432.85 275.56 432.83 275.49 432.83 275.42C432.83 275.35 432.55 275.25 432.52 275.19Z" fill="#263238"/>
<path d="M435.23 274.35C435.12 274.46 434.93 274.43 434.74 274.41C434.55 274.39 434.35 274.33 434.29 274.2C434.23 274.07 434.45 273.83 434.82 273.89C435.19 273.95 435.33 274.26 435.23 274.35Z" fill="#263238"/>
<path d="M436.6 273.63C436.53 273.76 436.25 273.75 435.95 273.7C435.65 273.65 435.39 273.56 435.37 273.41C435.35 273.26 435.66 273.11 436.04 273.18C436.42 273.25 436.67 273.51 436.6 273.63Z" fill="#263238"/>
<path d="M437.38 273C437.24 273 437.14 272.81 437.15 272.61C437.16 272.41 437.3 272.26 437.45 272.28C437.6 272.3 437.69 272.46 437.67 272.66C437.65 272.86 437.52 273 437.38 273Z" fill="#263238"/>
<path d="M438.56 271.15C438.51 271.15 438.66 270.88 439.02 270.95C439.132 270.977 439.233 271.038 439.309 271.123C439.386 271.209 439.435 271.316 439.45 271.43C439.471 271.576 439.442 271.725 439.368 271.852C439.293 271.979 439.178 272.077 439.04 272.13C438.896 272.175 438.741 272.167 438.602 272.109C438.463 272.05 438.349 271.944 438.28 271.81C438.224 271.702 438.207 271.578 438.233 271.46C438.258 271.341 438.325 271.235 438.42 271.16C438.74 270.93 438.97 271.16 438.92 271.16C438.87 271.16 438.75 271.25 438.68 271.39C438.61 271.53 438.68 271.51 438.68 271.54C438.7 271.563 438.725 271.58 438.752 271.592C438.78 271.605 438.81 271.611 438.84 271.61C438.871 271.593 438.897 271.568 438.916 271.538C438.935 271.509 438.947 271.475 438.95 271.44C438.953 271.407 438.947 271.374 438.933 271.344C438.919 271.315 438.897 271.289 438.87 271.27C438.76 271.19 438.6 271.21 438.56 271.15Z" fill="#263238"/>
<path d="M440.27 271.1C440.192 271.069 440.129 271.009 440.094 270.933C440.059 270.856 440.054 270.77 440.08 270.69C440.08 270.49 440.27 270.35 440.41 270.38C440.55 270.41 440.63 270.59 440.59 270.79C440.55 270.99 440.41 271.13 440.27 271.1Z" fill="#263238"/>
<path d="M441.72 269.88C441.645 269.859 441.58 269.81 441.539 269.743C441.499 269.676 441.485 269.597 441.5 269.52C441.495 269.479 441.499 269.438 441.512 269.399C441.524 269.36 441.546 269.324 441.575 269.295C441.604 269.266 441.639 269.243 441.678 269.23C441.716 269.216 441.758 269.211 441.799 269.216C441.839 269.221 441.879 269.235 441.913 269.257C441.948 269.279 441.977 269.309 441.998 269.344C442.02 269.379 442.033 269.418 442.037 269.459C442.04 269.5 442.035 269.542 442.02 269.58C442.018 269.659 441.985 269.734 441.929 269.789C441.874 269.845 441.799 269.878 441.72 269.88Z" fill="#263238"/>
<path d="M443.76 268.7C443.68 268.82 443.43 268.8 443.17 268.7C442.91 268.6 442.68 268.55 442.66 268.4C442.64 268.25 442.93 268.11 443.29 268.19C443.65 268.27 443.84 268.58 443.76 268.7Z" fill="#263238"/>
<path d="M444.74 268C444.61 268.06 444.41 267.87 444.49 267.61C444.57 267.35 444.83 267.3 444.91 267.42C444.977 267.52 445.002 267.642 444.98 267.76C444.958 267.814 444.926 267.863 444.885 267.905C444.843 267.946 444.794 267.978 444.74 268V268Z" fill="#263238"/>
<path d="M445.92 266.85C445.845 266.829 445.78 266.78 445.739 266.713C445.699 266.646 445.684 266.567 445.7 266.49C445.7 266.31 445.86 266.18 446 266.2C446.14 266.22 446.24 266.37 446.22 266.55C446.218 266.629 446.185 266.704 446.129 266.759C446.074 266.815 445.999 266.848 445.92 266.85V266.85Z" fill="#263238"/>
<path d="M431.5 213.73L424.87 220.4L440.93 236.19C440.93 236.19 444.2 226.67 446.48 218.29C448.09 212.37 431.5 213.73 431.5 213.73Z" fill="#9CDEAD"/>
<path d="M428.91 221C428.77 221 428.62 220.71 428.58 220.33C428.54 219.95 428.63 219.62 428.77 219.61C428.91 219.6 429.06 219.89 429.1 220.28C429.14 220.67 429.05 221 428.91 221Z" fill="#263238"/>
<path d="M430.44 221.31C430.44 221.45 430.19 221.57 429.88 221.57C429.57 221.57 429.33 221.45 429.33 221.31C429.33 221.17 429.58 221.05 429.88 221.05C430.18 221.05 430.44 221.16 430.44 221.31Z" fill="#263238"/>
<path d="M430.86 223.53C430.73 223.45 430.74 223.22 430.74 222.97C430.74 222.72 430.74 222.5 430.86 222.42C430.98 222.34 431.26 222.56 431.26 222.97C431.26 223.38 431 223.62 430.86 223.53Z" fill="#263238"/>
<path d="M432.18 223.75C432.12 223.75 432.35 223.43 432.78 223.57C432.91 223.612 433.027 223.688 433.119 223.789C433.21 223.891 433.273 224.016 433.3 224.15C433.32 224.331 433.276 224.514 433.175 224.666C433.074 224.818 432.923 224.93 432.748 224.983C432.574 225.035 432.386 225.024 432.218 224.953C432.05 224.881 431.913 224.753 431.83 224.59C431.784 224.456 431.778 224.312 431.814 224.175C431.85 224.038 431.925 223.915 432.03 223.82C432.092 223.758 432.168 223.712 432.251 223.684C432.335 223.656 432.423 223.648 432.51 223.66C432.64 223.66 432.68 223.76 432.66 223.78C432.64 223.8 432.44 223.84 432.31 224.06C432.18 224.28 432.25 224.57 432.6 224.48C432.95 224.39 432.86 224.07 432.6 223.91C432.34 223.75 432.22 223.81 432.18 223.75Z" fill="#263238"/>
<path d="M433.91 226.45C433.78 226.45 433.73 226.18 433.8 225.95C433.87 225.72 434.05 225.57 434.19 225.61C434.33 225.65 434.38 225.88 434.3 226.11C434.22 226.34 434.05 226.49 433.91 226.45Z" fill="#263238"/>
<path d="M435.41 226.16C435.55 226.16 435.6 226.58 435.52 227.04C435.44 227.5 435.26 227.86 435.12 227.83C434.98 227.8 434.93 227.41 435.01 226.95C435.09 226.49 435.27 226.14 435.41 226.16Z" fill="#263238"/>
<path d="M437 228C437 228.14 436.75 228.29 436.4 228.33C436.05 228.37 435.77 228.28 435.75 228.14C435.73 228 436 227.85 436.35 227.81C436.7 227.77 437 227.83 437 228Z" fill="#263238"/>
<path d="M437.65 228.76C437.65 228.7 437.86 228.54 438.24 228.7C438.355 228.75 438.457 228.826 438.538 228.921C438.62 229.016 438.678 229.129 438.71 229.25C438.744 229.417 438.722 229.591 438.648 229.744C438.574 229.898 438.452 230.023 438.3 230.1C438.145 230.193 437.96 230.222 437.783 230.183C437.607 230.144 437.452 230.039 437.35 229.89C437.285 229.764 437.263 229.621 437.289 229.481C437.314 229.342 437.385 229.215 437.49 229.12C437.554 229.053 437.637 229.006 437.727 228.984C437.818 228.963 437.913 228.968 438 229C438.12 229.05 438.14 229.12 438.12 229.14C438.1 229.16 437.91 229.14 437.8 229.38C437.69 229.62 437.8 229.78 438.09 229.66C438.38 229.54 438.28 229.22 438.09 229.04C437.9 228.86 437.66 228.84 437.65 228.76Z" fill="#263238"/>
<path d="M439.33 232.29C439.19 232.29 439.07 231.91 439.07 231.45C439.07 230.99 439.19 230.62 439.33 230.62C439.47 230.62 439.59 230.99 439.59 231.45C439.59 231.91 439.48 232.29 439.33 232.29Z" fill="#263238"/>
<path d="M436.91 206.89C436.53 207.669 436.045 208.392 435.47 209.04C434.47 210.3 433.09 212.04 431.47 213.81C429.85 215.58 428.37 217.25 427.28 218.41C426.721 219.067 426.102 219.67 425.43 220.21C425.883 219.475 426.409 218.788 427 218.16C428 216.95 429.48 215.29 431.08 213.47L435.18 208.8C435.711 208.124 436.289 207.485 436.91 206.89Z" fill="#263238"/>
<path d="M448.14 266.73C448.14 266.87 447.84 266.92 447.54 266.85C447.24 266.78 447.03 266.6 447.06 266.46C447.09 266.32 447.37 266.27 447.66 266.34C447.95 266.41 448.17 266.59 448.14 266.73Z" fill="#263238"/>
<path d="M448.9 265.51C448.9 265.46 448.96 265.3 449.25 265.28C449.345 265.281 449.437 265.31 449.516 265.363C449.594 265.417 449.655 265.492 449.69 265.58C449.722 265.643 449.74 265.713 449.741 265.784C449.742 265.855 449.727 265.926 449.698 265.99C449.668 266.055 449.624 266.112 449.569 266.157C449.514 266.202 449.449 266.234 449.38 266.25C448.88 266.38 448.45 265.89 448.67 265.51C448.702 265.453 448.751 265.407 448.81 265.378C448.869 265.349 448.935 265.34 449 265.35C449.09 265.35 449.11 265.44 449.09 265.47C449.059 265.493 449.034 265.523 449.018 265.558C449.003 265.593 448.996 265.632 449 265.67C449 265.67 449.15 265.78 449.24 265.75C449.244 265.729 449.239 265.707 449.228 265.689C449.218 265.671 449.2 265.657 449.18 265.65C449.07 265.58 448.93 265.58 448.9 265.51Z" fill="#263238"/>
<path d="M363.79 230.06C363.22 228.17 356.05 224.29 357.13 223.24C358.53 221.86 364.43 227.62 364.96 228.07C365.49 228.52 366.14 227.75 365.64 227.37C364.92 226.82 357.46 220.9 358.83 219.54C359.59 218.78 360.83 220.31 360.83 220.31C360.83 220.31 367.41 226.38 368.04 225.71C368.67 225.04 364.92 221.34 363.57 220.19C362.22 219.04 362.23 217.93 363.21 217.75C363.87 217.62 368.09 221.06 369.39 222.24C370.69 223.42 374.24 226.7 373.77 223.63C373.765 223.583 373.765 223.537 373.77 223.49C373.23 220.49 373.77 217.98 374.47 217.38C374.617 217.233 374.807 217.135 375.012 217.1C375.218 217.066 375.429 217.096 375.616 217.188C375.804 217.279 375.958 217.427 376.057 217.61C376.156 217.794 376.196 218.003 376.17 218.21C376.204 218.358 376.204 218.512 376.17 218.66C376.17 218.72 376.17 218.81 376.17 218.88C376.139 219.928 376.209 220.976 376.38 222.01C376.518 222.939 376.812 223.839 377.25 224.67C377.76 225.67 378.25 226.43 378.65 227.1C383.44 229.74 397.23 236.71 411.04 237.77C413.54 237.96 426.19 221.6 426.19 221.6L438.6 233.79C436.92 236.66 436.33 237.32 427.9 248.85C414.15 267.66 370.9 236.51 370.9 236.51L370.5 236.31C367.215 234.705 364.023 232.915 360.94 230.95C357.22 228.34 357.44 228 357.81 227.6C358.65 226.55 364.37 232 363.79 230.06Z" fill="#FFBE9D"/>
</svg>
