<svg width="27" height="27" viewBox="0 0 27 27" fill="none" xmlns="http://www.w3.org/2000/svg">
<path d="M1.30756 9.26694L8.53603 1.46019C9.28383 0.652569 10.5436 0.600956 11.355 1.3447L13.0945 2.93926C13.9339 3.70868 13.9624 5.02263 13.1573 5.82778L9.8176 9.16747C8.99953 9.98554 9.04413 11.325 9.91481 12.0868L13.094 14.8686C13.9389 15.6079 14.0099 16.8976 13.2513 17.7252L11.6951 19.4229C10.9256 20.2622 9.6117 20.2908 8.80654 19.4856L1.36087 12.04C0.600965 11.2801 0.577425 10.0555 1.30756 9.26694Z" fill="white"/>
<path d="M25.1924 17.2331L17.964 25.0398C17.2162 25.8474 15.9564 25.899 15.145 25.1553L13.4055 23.5607C12.5661 22.7913 12.5376 21.4774 13.3427 20.6722L16.6824 17.3325C17.5005 16.5145 17.4559 15.175 16.5852 14.4132L13.406 11.6314C12.5611 10.8921 12.4901 9.60237 13.2487 8.77479L14.8049 7.07712C15.5744 6.23775 16.8883 6.2092 17.6935 7.01436L25.1391 14.46C25.899 15.2199 25.9226 16.4445 25.1924 17.2331Z" fill="white"/>
</svg>
