<svg width="24" height="24" viewBox="0 0 24 24" fill="none" xmlns="http://www.w3.org/2000/svg">
<path d="M12 24C18.6274 24 24 18.6274 24 12C24 5.37258 18.6274 0 12 0C5.37258 0 0 5.37258 0 12C0 18.6274 5.37258 24 12 24Z" fill="white" fill-opacity="0.5"/>
<path d="M18.3929 11.961C18.2759 11.802 15.4989 8.06104 11.9509 8.06104C8.40294 8.06104 5.62594 11.802 5.50894 11.961C5.45514 12.0348 5.42615 12.1237 5.42615 12.215C5.42615 12.3063 5.45514 12.3953 5.50894 12.469C5.62494 12.628 8.40294 16.369 11.9509 16.369C15.4989 16.369 18.2769 12.623 18.3929 12.469C18.4469 12.3953 18.476 12.3064 18.476 12.215C18.476 12.1237 18.4469 12.0347 18.3929 11.961ZM11.9509 15.513C9.33794 15.513 7.07394 13.027 6.40394 12.213C7.07294 11.4 9.33194 8.91304 11.9509 8.91304C14.5699 8.91304 16.8269 11.399 17.4979 12.213C16.8259 13.028 14.5699 15.513 11.9509 15.513Z" fill="white"/>
<path d="M11.9479 9.63306C11.4375 9.63306 10.9385 9.78442 10.514 10.068C10.0896 10.3516 9.75876 10.7547 9.56341 11.2263C9.36806 11.698 9.31695 12.2169 9.41654 12.7176C9.51613 13.2182 9.76194 13.6781 10.1229 14.0391C10.4839 14.4001 10.9438 14.6459 11.4444 14.7455C11.9451 14.845 12.464 14.7939 12.9356 14.5986C13.4073 14.4032 13.8104 14.0724 14.094 13.648C14.3776 13.2235 14.5289 12.7245 14.5289 12.2141C14.5281 11.5298 14.256 10.8737 13.7721 10.3899C13.2882 9.90602 12.6322 9.63385 11.9479 9.63306ZM11.9479 13.933C11.6076 13.933 11.2748 13.8321 10.9918 13.643C10.7088 13.4539 10.4882 13.1851 10.3579 12.8707C10.2277 12.5562 10.1936 12.2101 10.26 11.8763C10.3264 11.5425 10.4903 11.2358 10.731 10.9951C10.9717 10.7544 11.2783 10.5905 11.6122 10.5241C11.946 10.4577 12.2921 10.4918 12.6065 10.6221C12.921 10.7523 13.1898 10.9729 13.3789 11.2559C13.568 11.5389 13.6689 11.8717 13.6689 12.2121C13.6689 12.6687 13.4877 13.1066 13.165 13.4297C12.8423 13.7528 12.4046 13.9345 11.9479 13.935V13.933Z" fill="white"/>
<path d="M7.25098 16.9701L17.363 6.86108" stroke="white" stroke-width="0.8" stroke-linecap="round"/>
</svg>
