<svg width="16" height="19" viewBox="0 0 16 19" fill="none" xmlns="http://www.w3.org/2000/svg">
<path d="M11.351 9.77402C11.4158 9.77264 11.4803 9.78463 11.5403 9.80923C11.6004 9.83383 11.6547 9.87052 11.7 9.91702L15.152 13.748C15.2051 13.8029 15.2347 13.8762 15.2347 13.9525C15.2347 14.0288 15.2051 14.1022 15.152 14.157L11.701 17.987C11.6231 18.0636 11.5223 18.1126 11.4139 18.1265C11.3056 18.1405 11.1957 18.1185 11.101 18.064C11.0569 18.044 11.0183 18.0138 10.9881 17.976C10.9579 17.9382 10.9371 17.8938 10.9274 17.8464C10.9176 17.7991 10.9192 17.7501 10.932 17.7034C10.9448 17.6568 10.9684 17.6138 11.001 17.578L14.27 13.952L11.003 10.331C10.9702 10.2952 10.9464 10.2522 10.9335 10.2054C10.9206 10.1587 10.919 10.1095 10.9287 10.062C10.9385 10.0145 10.9594 9.96996 10.9896 9.93207C11.0199 9.89418 11.0588 9.864 11.103 9.84402C11.1781 9.79942 11.2636 9.77528 11.351 9.77402Z" fill="#959595" stroke="#959595" stroke-width="0.2"/>
<path d="M4.88397 9.12199C4.8191 9.12337 4.75462 9.11143 4.69458 9.08683C4.63454 9.06223 4.58023 9.02542 4.53497 8.97892L1.08398 5.14811C1.03089 5.09328 1.00122 5.01985 1.00122 4.94352C1.00122 4.8672 1.03089 4.79377 1.08398 4.73893L4.53497 0.9091C4.61284 0.832484 4.71367 0.783357 4.82202 0.769452C4.93037 0.755546 5.04026 0.77748 5.13495 0.831952C5.17898 0.85198 5.2177 0.882277 5.24786 0.920086C5.27803 0.957896 5.29878 1.00211 5.30853 1.04948C5.31828 1.09686 5.31674 1.1459 5.30396 1.19255C5.29117 1.23919 5.26753 1.28225 5.23499 1.31804L1.96796 4.94401L5.23499 8.56901C5.26774 8.6048 5.29154 8.64774 5.30444 8.6945C5.31735 8.74126 5.31896 8.79054 5.3092 8.83805C5.29945 8.88557 5.27858 8.93005 5.24829 8.96794C5.218 9.00583 5.17915 9.03609 5.13495 9.05607C5.05855 9.09978 4.97199 9.12247 4.88397 9.12199Z" fill="#959595" stroke="#959595" stroke-width="0.2"/>
<path d="M14.934 5.38208H1.69598C1.52998 5.38208 1.396 5.18893 1.396 4.95093C1.396 4.71293 1.53098 4.52002 1.69598 4.52002H14.934C15.1 4.52002 15.234 4.71293 15.234 4.95093C15.234 5.18893 15.096 5.38208 14.934 5.38208Z" fill="#959595" stroke="#959595" stroke-width="0.2"/>
<path d="M1.30097 13.5152L14.54 13.5152C14.705 13.5152 14.84 13.7082 14.84 13.9472C14.84 14.1862 14.705 14.3782 14.54 14.3782L1.30097 14.3782C1.13497 14.3782 1.00097 14.1852 1.00097 13.9472C1.00097 13.7092 1.13397 13.5152 1.30097 13.5152Z" fill="#959595" stroke="#959595" stroke-width="0.2"/>
</svg>
