<svg width="17" height="18" viewBox="0 0 17 18" fill="none" xmlns="http://www.w3.org/2000/svg">
<path d="M2.13293 17.6694H1.42078C0.786743 17.6694 0.270874 17.1536 0.270874 16.5195V11.731C0.270874 11.0969 0.786743 10.5811 1.42078 10.5811H2.13293C2.76746 10.5811 3.28357 11.0969 3.28357 11.731V16.5195C3.28357 17.1536 2.76746 17.6694 2.13293 17.6694ZM1.42078 11.3108C1.18909 11.3108 1.00061 11.4993 1.00061 11.731V16.5195C1.00061 16.751 1.18909 16.939 1.42078 16.939H2.13293C2.36487 16.939 2.55334 16.751 2.55334 16.5195V11.731C2.55334 11.4993 2.36487 11.3108 2.13293 11.3108H1.42078Z" fill="#959595"/>
<path d="M2.13293 17.5693C2.71228 17.5693 3.18347 17.0979 3.18347 16.5195V11.731C3.18347 11.1519 2.71228 10.6812 2.13293 10.6812H1.42078C0.841675 10.6812 0.370972 11.1519 0.370972 11.731V16.5195C0.370972 17.0979 0.841675 17.5693 1.42078 17.5693H2.13293ZM1.42078 11.2107H2.13293C2.4198 11.2107 2.65344 11.4443 2.65344 11.731V16.5195C2.65344 16.8064 2.4198 17.0391 2.13293 17.0391H1.42078C1.13416 17.0391 0.900513 16.8064 0.900513 16.5195V11.731C0.900513 11.4443 1.13416 11.2107 1.42078 11.2107ZM2.13293 17.7693H1.42078C0.731567 17.7693 0.171021 17.2087 0.171021 16.5195V11.731C0.171021 11.0417 0.731567 10.4812 1.42078 10.4812H2.13293C2.82239 10.4812 3.38342 11.0417 3.38342 11.731V16.5195C3.38342 17.2087 2.82239 17.7693 2.13293 17.7693ZM1.42078 11.4106C1.24426 11.4106 1.10046 11.5544 1.10046 11.731V16.5195C1.10046 16.6958 1.24426 16.8391 1.42078 16.8391H2.13293C2.30969 16.8391 2.45349 16.6958 2.45349 16.5195V11.731C2.45349 11.5544 2.30969 11.4106 2.13293 11.4106H1.42078Z" fill="#959595"/>
<path d="M14.9109 17.6692H14.1987C13.5647 17.6692 13.0488 17.1533 13.0488 16.5193V4.3938C13.0488 3.75977 13.5647 3.2439 14.1987 3.2439H14.9109C15.5454 3.2439 16.0615 3.75977 16.0615 4.3938V16.5193C16.0615 17.1533 15.5454 17.6692 14.9109 17.6692ZM14.1987 3.97437C13.9673 3.97437 13.7793 4.16235 13.7793 4.3938V16.5193C13.7793 16.7507 13.9673 16.9387 14.1987 16.9387H14.9109C15.1426 16.9387 15.3311 16.7507 15.3311 16.5193V4.3938C15.3311 4.16235 15.1426 3.97437 14.9109 3.97437H14.1987Z" fill="#959595"/>
<path d="M14.9109 17.5691C15.4902 17.5691 15.9614 17.0974 15.9614 16.5193V4.3938C15.9614 3.8147 15.4902 3.34399 14.9109 3.34399H14.1987C13.6204 3.34399 13.1489 3.8147 13.1489 4.3938V16.5193C13.1489 17.0974 13.6204 17.5691 14.1987 17.5691H14.9109ZM14.1987 3.87427H14.9109C15.1975 3.87427 15.4312 4.10718 15.4312 4.3938V16.5193C15.4312 16.8059 15.1975 17.0388 14.9109 17.0388H14.1987C13.9119 17.0388 13.6792 16.8059 13.6792 16.5193V4.3938C13.6792 4.10718 13.9119 3.87427 14.1987 3.87427ZM14.9109 17.769H14.1987C13.5095 17.769 12.949 17.2085 12.949 16.5193V4.3938C12.949 3.70459 13.5095 3.14404 14.1987 3.14404H14.9109C15.6003 3.14404 16.1614 3.70459 16.1614 4.3938V16.5193C16.1614 17.2085 15.6003 17.769 14.9109 17.769ZM14.1987 4.07422C14.0225 4.07422 13.8792 4.21753 13.8792 4.3938V16.5193C13.8792 16.6956 14.0225 16.8389 14.1987 16.8389H14.9109C15.0874 16.8389 15.2312 16.6956 15.2312 16.5193V4.3938C15.2312 4.21753 15.0874 4.07422 14.9109 4.07422H14.1987Z" fill="#959595"/>
<path d="M6.3927 17.6687H5.67981C5.04578 17.6687 4.52991 17.1528 4.52991 16.5188V8.46973C4.52991 7.83521 5.04578 7.31909 5.67981 7.31909H6.3927C7.02673 7.31909 7.54285 7.83521 7.54285 8.46973V16.5188C7.54285 17.1528 7.02673 17.6687 6.3927 17.6687ZM5.67981 8.04956C5.44836 8.04956 5.26038 8.23804 5.26038 8.46973V16.5188C5.26038 16.7502 5.44836 16.9382 5.67981 16.9382H6.3927C6.62415 16.9382 6.81213 16.7502 6.81213 16.5188V8.46973C6.81213 8.23804 6.62415 8.04956 6.3927 8.04956H5.67981Z" fill="#959595"/>
<path d="M6.3927 17.5686C6.97131 17.5686 7.44275 17.0972 7.44275 16.5188V8.46973C7.44275 7.89062 6.97131 7.41919 6.3927 7.41919H5.67981C5.10144 7.41919 4.63 7.89062 4.63 8.46973V16.5188C4.63 17.0972 5.10144 17.5686 5.67981 17.5686H6.3927ZM5.67981 7.94946H6.3927C6.67957 7.94946 6.91223 8.18311 6.91223 8.46973V16.5188C6.91223 16.8057 6.67957 17.0383 6.3927 17.0383H5.67981C5.39319 17.0383 5.16028 16.8057 5.16028 16.5188V8.46973C5.16028 8.18311 5.39319 7.94946 5.67981 7.94946ZM6.3927 17.7686H5.67981C4.9906 17.7686 4.43005 17.208 4.43005 16.5188V8.46973C4.43005 7.78027 4.9906 7.21924 5.67981 7.21924H6.3927C7.08191 7.21924 7.6427 7.78027 7.6427 8.46973V16.5188C7.6427 17.208 7.08191 17.7686 6.3927 17.7686ZM5.67981 8.14941C5.50354 8.14941 5.36023 8.29321 5.36023 8.46973V16.5188C5.36023 16.6951 5.50354 16.8384 5.67981 16.8384H6.3927C6.56897 16.8384 6.71228 16.6951 6.71228 16.5188V8.46973C6.71228 8.29321 6.56897 8.14941 6.3927 8.14941H5.67981Z" fill="#959595"/>
<path d="M10.652 17.6689H9.94006C9.30603 17.6689 8.78992 17.2327 8.78992 16.6965V2.01538C8.78992 1.47925 9.30603 1.04297 9.94006 1.04297H10.652C11.286 1.04297 11.8019 1.47925 11.8019 2.01538V16.6965C11.8019 17.2327 11.286 17.6689 10.652 17.6689ZM9.94006 1.68335C9.70813 1.68335 9.51965 1.83228 9.51965 2.01538V16.6965C9.51965 16.8796 9.70813 17.0286 9.94006 17.0286H10.652C10.8837 17.0286 11.0721 16.8796 11.0721 16.6965V2.01538C11.0721 1.83228 10.8837 1.68335 10.652 1.68335H9.94006Z" fill="#959595"/>
<path d="M10.652 17.5688C11.2311 17.5688 11.7018 17.1777 11.7018 16.6965V2.01538C11.7018 1.53418 11.2311 1.14307 10.652 1.14307H9.94006C9.36047 1.14307 8.89001 1.53418 8.89001 2.01538V16.6965C8.89001 17.1777 9.36047 17.5688 9.94006 17.5688H10.652ZM9.94006 1.58325H10.652C10.9388 1.58325 11.1722 1.7771 11.1722 2.01538V16.6965C11.1722 16.9343 10.9388 17.1287 10.652 17.1287H9.94006C9.6532 17.1287 9.41956 16.9343 9.41956 16.6965V2.01538C9.41956 1.7771 9.6532 1.58325 9.94006 1.58325ZM10.652 17.7688H9.94006C9.25085 17.7688 8.69006 17.2878 8.69006 16.6965V2.01538C8.69006 1.42407 9.25085 0.943115 9.94006 0.943115H10.652C11.3412 0.943115 11.9017 1.42407 11.9017 2.01538V16.6965C11.9017 17.2878 11.3412 17.7688 10.652 17.7688ZM9.94006 1.7832C9.76624 1.7832 9.61951 1.88965 9.61951 2.01538V16.6965C9.61951 16.8223 9.76624 16.9287 9.94006 16.9287H10.652C10.8256 16.9287 10.9723 16.8223 10.9723 16.6965V2.01538C10.9723 1.88965 10.8256 1.7832 10.652 1.7832H9.94006Z" fill="#959595"/>
</svg>
