<svg width="20" height="14" viewBox="0 0 20 14" fill="none" xmlns="http://www.w3.org/2000/svg">
<path d="M17.8969 13.55H1.97546C1.36121 13.55 0.86145 13.0874 0.86145 12.519V1.35889C0.86145 0.790527 1.36121 0.327881 1.97546 0.327881H17.8969C18.5111 0.327881 19.0109 0.790527 19.0109 1.35889V12.519C19.0109 13.0874 18.5111 13.55 17.8969 13.55ZM1.97546 0.923096C1.71204 0.923096 1.49792 1.11865 1.49792 1.35889V12.519C1.49792 12.7595 1.71204 12.9553 1.97546 12.9553H17.8969C18.1595 12.9553 18.3734 12.7595 18.3734 12.519V1.35889C18.3734 1.11865 18.1595 0.923096 17.8969 0.923096H1.97546Z" fill="#959595"/>
<path d="M17.8969 13.5C18.483 13.5 18.9608 13.0605 18.9608 12.519V1.35889C18.9608 0.817383 18.483 0.37793 17.8969 0.37793H1.97546C1.38782 0.37793 0.911499 0.817383 0.911499 1.35889V12.519C0.911499 13.0605 1.38782 13.5 1.97546 13.5H17.8969ZM1.97546 0.873047H17.8969C18.1874 0.873047 18.4235 1.09082 18.4235 1.35889V12.519C18.4235 12.7871 18.1874 13.0054 17.8969 13.0054H1.97546C1.68445 13.0054 1.44788 12.7871 1.44788 12.519V1.35889C1.44788 1.09082 1.68445 0.873047 1.97546 0.873047ZM17.8969 13.6001H1.97546C1.33362 13.6001 0.811401 13.115 0.811401 12.519V1.35889C0.811401 0.762939 1.33362 0.277832 1.97546 0.277832H17.8969C18.5387 0.277832 19.0609 0.762939 19.0609 1.35889V12.519C19.0609 13.115 18.5387 13.6001 17.8969 13.6001ZM1.97546 0.973145C1.73962 0.973145 1.54797 1.14624 1.54797 1.35889V12.519C1.54797 12.7322 1.73962 12.9053 1.97546 12.9053H17.8969C18.1322 12.9053 18.3234 12.7322 18.3234 12.519V1.35889C18.3234 1.14624 18.1322 0.973145 17.8969 0.973145H1.97546Z" fill="#959595"/>
<path d="M18.693 6.74586V4.43286L1.17999 4.43286V6.74586L18.693 6.74586Z" fill="#959595"/>
<path d="M18.743 6.79581V4.38281L1.13004 4.38281V6.79581L18.743 6.79581Z" stroke="#959595" stroke-width="0.1"/>
</svg>
