<svg width="16" height="18" viewBox="0 0 16 18" fill="none" xmlns="http://www.w3.org/2000/svg">
<path fill-rule="evenodd" clip-rule="evenodd" d="M3.78125 5.21875C3.78125 2.89253 5.67378 1 8 1C10.3262 1 12.2188 2.89253 12.2188 5.21875C12.2188 7.54497 10.3262 9.4375 8 9.4375C5.67378 9.4375 3.78125 7.54497 3.78125 5.21875ZM4.71875 5.21875C4.71875 7.02803 6.19072 8.5 8 8.5C9.80928 8.5 11.2812 7.02803 11.2812 5.21875C11.2812 3.40947 9.80928 1.9375 8 1.9375C6.19072 1.9375 4.71875 3.40947 4.71875 5.21875ZM6.69269 10.4062H9.30728C11.4725 10.4062 13.6062 11.4078 15.0312 13.5456V17H0.96875V13.5456C2.39591 11.4047 4.53012 10.4062 6.69269 10.4062ZM14.0938 16.0625H14.0938V13.8324C12.999 12.2713 11.2203 11.3438 9.30731 11.3438H6.69272C4.77975 11.3438 3.00097 12.2713 1.90625 13.8324V16.0625H14.0938Z" fill="#959595"/>
<path d="M15.0312 13.5456H15.1313V13.5153L15.1145 13.4901L15.0312 13.5456ZM15.0312 17V17.1H15.1313V17H15.0312ZM0.96875 17H0.86875V17.1H0.96875V17ZM0.96875 13.5456L0.885544 13.4901L0.86875 13.5153V13.5456H0.96875ZM14.0938 16.0625V16.1625H14.1938V16.0625H14.0938ZM14.0938 13.8324H14.1938V13.8008L14.1757 13.775L14.0938 13.8324ZM1.90625 13.8324L1.82438 13.775L1.80625 13.8008V13.8324H1.90625ZM1.90625 16.0625H1.80625V16.1625H1.90625V16.0625ZM8 0.9C5.61855 0.9 3.68125 2.8373 3.68125 5.21875H3.88125C3.88125 2.94776 5.72901 1.1 8 1.1V0.9ZM12.3188 5.21875C12.3188 2.8373 10.3814 0.9 8 0.9V1.1C10.271 1.1 12.1187 2.94776 12.1187 5.21875H12.3188ZM8 9.5375C10.3814 9.5375 12.3188 7.6002 12.3188 5.21875H12.1187C12.1187 7.48974 10.271 9.3375 8 9.3375V9.5375ZM3.68125 5.21875C3.68125 7.6002 5.61855 9.5375 8 9.5375V9.3375C5.72901 9.3375 3.88125 7.48974 3.88125 5.21875H3.68125ZM8 8.4C6.24595 8.4 4.81875 6.9728 4.81875 5.21875H4.61875C4.61875 7.08326 6.13549 8.6 8 8.6V8.4ZM11.1812 5.21875C11.1812 6.9728 9.75405 8.4 8 8.4V8.6C9.86451 8.6 11.3813 7.08326 11.3813 5.21875H11.1812ZM8 2.0375C9.75405 2.0375 11.1812 3.4647 11.1812 5.21875H11.3813C11.3813 3.35424 9.86451 1.8375 8 1.8375V2.0375ZM4.81875 5.21875C4.81875 3.4647 6.24595 2.0375 8 2.0375V1.8375C6.13549 1.8375 4.61875 3.35424 4.61875 5.21875H4.81875ZM9.30728 10.3062H6.69269V10.5063H9.30728V10.3062ZM15.1145 13.4901C13.6703 11.3237 11.505 10.3062 9.30728 10.3062V10.5063C11.4401 10.5063 13.542 11.4919 14.948 13.601L15.1145 13.4901ZM15.1313 17V13.5456H14.9312V17H15.1313ZM0.96875 17.1H15.0312V16.9H0.96875V17.1ZM0.86875 13.5456V17H1.06875V13.5456H0.86875ZM6.69269 10.3062C4.49771 10.3062 2.33181 11.3206 0.885544 13.4901L1.05196 13.601C2.46 11.4889 4.56254 10.5063 6.69269 10.5063V10.3062ZM14.0938 15.9625H14.0938V16.1625H14.0938V15.9625ZM13.9938 13.8324V16.0625H14.1938V13.8324H13.9938ZM9.30731 11.4438C11.1877 11.4438 12.9359 12.3554 14.0119 13.8898L14.1757 13.775C13.0622 12.1873 11.2529 11.2437 9.30731 11.2437V11.4438ZM6.69272 11.4438H9.30731V11.2437H6.69272V11.4438ZM1.98812 13.8898C3.06414 12.3554 4.81238 11.4438 6.69272 11.4438V11.2437C4.74712 11.2437 2.9378 12.1873 1.82438 13.775L1.98812 13.8898ZM2.00625 16.0625V13.8324H1.80625V16.0625H2.00625ZM14.0938 15.9625H1.90625V16.1625H14.0938V15.9625Z" fill="#959595"/>
</svg>
