<svg width="19" height="18" viewBox="0 0 19 18" fill="none" xmlns="http://www.w3.org/2000/svg">
<path d="M16.4791 17.5791H11.4151C11.3192 17.5788 11.2274 17.5406 11.1598 17.4727C11.0921 17.4049 11.0541 17.3129 11.0541 17.2171V12.5171H8.16006V17.2171C8.16006 17.3131 8.12193 17.4052 8.05404 17.4731C7.98616 17.5409 7.89407 17.5791 7.79806 17.5791H2.72909C2.63326 17.5788 2.54145 17.5406 2.47378 17.4727C2.40611 17.4049 2.36807 17.3129 2.36807 17.2171V8.17409H1.36306C1.28968 8.17388 1.21811 8.15139 1.1578 8.10957C1.0975 8.06776 1.05134 8.00861 1.02542 7.93996C0.999498 7.87131 0.995042 7.7964 1.01266 7.72517C1.03028 7.65394 1.06912 7.58974 1.12405 7.54109L9.40408 0.233088C9.46995 0.175823 9.55429 0.144287 9.64157 0.144287C9.72885 0.144287 9.81318 0.175823 9.87906 0.233088L11.7791 1.85209V0.582088C11.7791 0.486253 11.8171 0.394328 11.8847 0.326468C11.9524 0.258609 12.0443 0.220353 12.1401 0.220088H15.0341C15.1301 0.220088 15.2222 0.258227 15.2901 0.326116C15.358 0.394004 15.3961 0.48608 15.3961 0.582088V4.97609L18.2521 7.54809C18.3065 7.59706 18.3447 7.66138 18.3618 7.73254C18.3789 7.80371 18.374 7.87838 18.3478 7.94672C18.3216 8.01505 18.2753 8.07384 18.215 8.11532C18.1547 8.15681 18.0833 8.17904 18.0101 8.17909H16.8441V17.2231C16.8425 17.3186 16.8033 17.4096 16.7349 17.4762C16.6665 17.5429 16.5746 17.5799 16.4791 17.5791ZM11.7791 16.8561H16.1201V7.81209C16.1201 7.71625 16.1581 7.62433 16.2257 7.55647C16.2934 7.48861 16.3853 7.45035 16.4811 7.45009H17.0671L14.7921 5.40109C14.7543 5.36717 14.7241 5.32569 14.7035 5.27934C14.6828 5.233 14.6721 5.18283 14.6721 5.13209V0.939088H12.5021V2.63309C12.5025 2.70278 12.4828 2.77112 12.4453 2.82989C12.4079 2.88866 12.3543 2.93537 12.2909 2.96441C12.2276 2.99345 12.1571 3.00358 12.0882 2.99359C12.0192 2.9836 11.9546 2.95391 11.9021 2.90809L9.64908 0.984088L2.32107 7.45109H2.73111C2.82711 7.45109 2.91914 7.48923 2.98703 7.55711C3.05491 7.625 3.09311 7.71708 3.09311 7.81309V16.8571H7.43411V12.1571C7.43411 12.0613 7.47209 11.9693 7.53976 11.9015C7.60743 11.8336 7.69924 11.7954 7.79507 11.7951H11.4121C11.5081 11.7951 11.6002 11.8332 11.6681 11.9011C11.7359 11.969 11.7741 12.0611 11.7741 12.1571L11.7791 16.8561Z" fill="#959595" stroke="#959595" stroke-width="0.2"/>
</svg>
