<svg width="21" height="22" viewBox="0 0 21 22" fill="none" xmlns="http://www.w3.org/2000/svg">
<path d="M2.99524 20.6037C3.12732 20.6037 3.26013 20.5776 3.38635 20.5236L7.51184 18.7596C8.52771 19.161 9.59241 19.3642 10.6825 19.3642C15.4701 19.3642 19.3649 15.4695 19.3649 10.6823C19.3649 5.89502 15.4701 1.99988 10.6825 1.99988C5.89539 1.99988 2.00037 5.89502 2.00037 10.6823C2.00037 12.4726 2.56018 14.2263 3.58728 15.6838L2.07996 19.2186C1.92053 19.5924 2.00476 20.0253 2.29187 20.3127C2.4823 20.5031 2.73694 20.6037 2.99524 20.6037ZM2.99524 21.7037C2.43543 21.7037 1.90955 21.4859 1.51404 21.0905C0.905885 20.4818 0.730836 19.5778 1.06824 18.787L2.34436 15.7941C1.40979 14.2641 0.900269 12.4719 0.900269 10.6823C0.900269 5.28821 5.2887 0.899902 10.6825 0.899902C16.0765 0.899902 20.465 5.28821 20.465 10.6823C20.465 16.076 16.0765 20.4642 10.6825 20.4642C9.6095 20.4642 8.5553 20.289 7.5426 19.9429L3.81873 21.535C3.5575 21.6469 3.28015 21.7037 2.99524 21.7037Z" fill="#959595"/>
<path d="M14.999 13.1979C15.039 13.5029 13.984 14.4589 13.729 14.6899C12.908 15.4319 11.393 14.5899 10.629 14.1159C9.40588 13.3491 8.36248 12.3276 7.56999 11.1209C7.06999 10.3609 6.11801 8.72093 6.87501 7.87193C7.2714 7.39492 7.72323 6.96691 8.22099 6.59693C8.74599 6.45393 9.675 8.59692 9.684 8.81792C9.701 9.24192 9.242 9.32993 9.084 9.64693C8.897 10.0299 9.521 10.7289 9.752 10.9969C10.1777 11.5143 10.6842 11.9594 11.252 12.3149C11.442 12.4259 11.714 12.6049 11.933 12.4969C12.052 12.4389 12.18 12.2459 12.272 12.1519C12.3691 12.0162 12.5127 11.9208 12.6755 11.8839C12.8382 11.8471 13.0089 11.8713 13.155 11.9519C13.516 12.1369 14.939 12.8979 14.999 13.1979Z" stroke="#959595" stroke-width="1.1" stroke-miterlimit="10" stroke-linecap="round" stroke-linejoin="round"/>
</svg>
