<svg width="20" height="17" viewBox="0 0 20 17" fill="none" xmlns="http://www.w3.org/2000/svg">
<path d="M17.263 4.3719H12.036C11.8819 4.3719 11.7341 4.43311 11.6252 4.54207C11.5162 4.65103 11.455 4.79881 11.455 4.9529C11.455 5.10699 11.5162 5.25477 11.6252 5.36373C11.7341 5.47269 11.8819 5.5339 12.036 5.5339H14.4C14.5268 6.40194 14.9304 7.20587 15.5507 7.82618C16.171 8.44649 16.975 8.85006 17.843 8.9769V11.9599C16.9744 12.087 16.17 12.4911 15.5496 13.1122C14.9293 13.7333 14.526 14.5381 14.4 15.4069H5.6C5.47423 14.5389 5.07173 13.7346 4.45234 13.1136C3.83294 12.4925 3.02971 12.0879 2.162 11.9599V8.9769C3.02927 8.84902 3.83219 8.44486 4.45153 7.82444C5.07088 7.20401 5.47363 6.4004 5.6 5.5329H7.97C8.12409 5.5329 8.27187 5.47169 8.38083 5.36273C8.48979 5.25377 8.551 5.10599 8.551 4.9519C8.551 4.79781 8.48979 4.65003 8.38083 4.54107C8.27187 4.43211 8.12409 4.3709 7.97 4.3709H2.742C2.27998 4.37143 1.83705 4.55527 1.51045 4.88206C1.18385 5.20885 1.00026 5.65188 1 6.1139L1 14.8259C1.00053 15.2877 1.18423 15.7305 1.5108 16.0571C1.83738 16.3837 2.28016 16.5674 2.742 16.5679H17.263C17.7248 16.5674 18.1676 16.3837 18.4942 16.0571C18.8208 15.7305 19.0045 15.2877 19.005 14.8259V6.1139C19.0045 5.65206 18.8208 5.20928 18.4942 4.88271C18.1676 4.55613 17.7248 4.37243 17.263 4.3719ZM15.579 5.5339H17.263C17.417 5.53416 17.5646 5.59546 17.6735 5.70436C17.7824 5.81326 17.8437 5.96089 17.844 6.1149V7.7989C17.2863 7.68391 16.7745 7.40799 16.372 7.00526C15.9694 6.60253 15.6937 6.09164 15.579 5.5339ZM2.742 5.5339H4.427C4.31208 6.09146 4.03631 6.60313 3.63377 7.00567C3.23123 7.40821 2.71956 7.68398 2.162 7.7989V6.1139C2.162 5.95998 2.22307 5.81235 2.33182 5.70342C2.44056 5.59449 2.58808 5.53416 2.742 5.5339ZM2.161 14.8269V13.1429C2.71856 13.2578 3.23023 13.5336 3.63277 13.9361C4.03531 14.3387 4.31108 14.8503 4.426 15.4079H2.742C2.58816 15.4074 2.44079 15.346 2.33211 15.2371C2.22342 15.1282 2.16126 14.9807 2.161 14.8269ZM17.261 15.4079H15.579C15.6939 14.8503 15.9697 14.3387 16.3722 13.9361C16.7748 13.5336 17.2864 13.2578 17.844 13.1429V14.8269C17.8435 14.9807 17.7821 15.1281 17.6732 15.2368C17.5643 15.3455 17.4168 15.4066 17.263 15.4069L17.261 15.4079ZM6.808 10.4699C6.8078 11.102 6.99509 11.7199 7.34618 12.2455C7.69726 12.7711 8.19636 13.1808 8.78033 13.4227C9.36429 13.6646 10.0069 13.7278 10.6268 13.6044C11.2467 13.481 11.8161 13.1765 12.2629 12.7294C12.7097 12.2823 13.0139 11.7127 13.1369 11.0927C13.2599 10.4727 13.1963 9.83019 12.954 9.24638C12.7118 8.66256 12.3018 8.16372 11.776 7.81296C11.2501 7.46221 10.6321 7.27531 10 7.2759C9.15373 7.27801 8.34276 7.61527 7.74454 8.21386C7.14633 8.81245 6.80958 9.62363 6.808 10.4699ZM12.035 10.4699C12.035 10.8719 11.9158 11.2649 11.6925 11.5992C11.4692 11.9334 11.1518 12.194 10.7805 12.348C10.4091 12.5019 10.0004 12.5423 9.60612 12.464C9.21181 12.3857 8.84956 12.1923 8.56516 11.9082C8.28076 11.624 8.08698 11.262 8.00831 10.8677C7.92964 10.4735 7.96961 10.0648 8.12318 9.69329C8.27675 9.32177 8.53701 9.00412 8.87107 8.78049C9.20513 8.55686 9.598 8.43729 10 8.4369C10.5395 8.43663 11.0571 8.65064 11.4389 9.03188C11.8207 9.41311 12.0355 9.93036 12.036 10.4699H12.035ZM5.355 9.8889C5.50909 9.8889 5.65687 9.95011 5.76583 10.0591C5.87479 10.168 5.936 10.3158 5.936 10.4699C5.936 10.624 5.87479 10.7718 5.76583 10.8807C5.65687 10.9897 5.50909 11.0509 5.355 11.0509H5.065C4.91091 11.0509 4.76313 10.9897 4.65417 10.8807C4.54521 10.7718 4.484 10.624 4.484 10.4699C4.484 10.3158 4.54521 10.168 4.65417 10.0591C4.76313 9.95011 4.91091 9.8889 5.065 9.8889H5.355ZM14.648 11.0509C14.4939 11.0509 14.3461 10.9897 14.2372 10.8807C14.1282 10.7718 14.067 10.624 14.067 10.4699C14.067 10.3158 14.1282 10.168 14.2372 10.0591C14.3461 9.95011 14.4939 9.8889 14.648 9.8889H14.938C15.0921 9.8889 15.2399 9.95011 15.3488 10.0591C15.4578 10.168 15.519 10.3158 15.519 10.4699C15.519 10.624 15.4578 10.7718 15.3488 10.8807C15.2399 10.9897 15.0921 11.0509 14.938 11.0509H14.648ZM8.393 2.7509C8.28424 2.64197 8.22316 2.49433 8.22316 2.3404C8.22316 2.18647 8.28424 2.03883 8.393 1.9299L9.593 0.7299C9.70193 0.621143 9.84957 0.560059 10.0035 0.560059C10.1574 0.560059 10.3051 0.621143 10.414 0.7299L11.614 1.9299C11.7158 2.04017 11.7709 2.18555 11.7679 2.33559C11.7649 2.48562 11.704 2.62868 11.5979 2.73479C11.4918 2.8409 11.3487 2.90184 11.1987 2.90484C11.0487 2.90785 10.9033 2.85268 10.793 2.7509L10.587 2.5449V5.3169C10.587 5.3932 10.572 5.46875 10.5428 5.53924C10.5136 5.60973 10.4708 5.67378 10.4168 5.72773C10.3629 5.78168 10.2988 5.82448 10.2283 5.85367C10.1578 5.88287 10.0823 5.8979 10.006 5.8979C9.9297 5.8979 9.85415 5.88287 9.78366 5.85367C9.71317 5.82448 9.64912 5.78168 9.59517 5.72773C9.54122 5.67378 9.49842 5.60973 9.46923 5.53924C9.44003 5.46875 9.425 5.3932 9.425 5.3169V2.5429L9.219 2.7489C9.11007 2.85766 8.96243 2.91874 8.8085 2.91874C8.65457 2.91874 8.50693 2.85766 8.398 2.7489L8.393 2.7509Z" fill="#959595" stroke="#F5F7F4" stroke-width="0.2"/>
</svg>
