<svg width="22" height="21" viewBox="0 0 22 21" fill="none" xmlns="http://www.w3.org/2000/svg">
<path d="M10.3359 15.5808V14.3909C9.59763 14.3684 8.87307 14.1851 8.21289 13.8538L8.58594 12.3928C9.22466 12.7403 9.93801 12.9284 10.665 12.9409C11.378 12.9409 11.865 12.6598 11.865 12.1658C11.865 11.6878 11.4649 11.3948 10.5339 11.0828C9.19594 10.6288 8.28491 10.0019 8.28491 8.7959C8.30031 8.22911 8.52456 7.68795 8.91455 7.27637C9.30454 6.86479 9.83281 6.61181 10.3979 6.56592V5.37183H11.627V6.47192C12.253 6.48039 12.8703 6.61997 13.439 6.88184L13.0659 8.2959C12.5079 8.01314 11.8916 7.86505 11.2661 7.86377C10.4661 7.86377 10.197 8.22278 10.197 8.57178C10.197 8.97878 10.632 9.24787 11.697 9.64087C13.186 10.1639 13.781 10.8528 13.781 11.9868C13.7625 12.577 13.5251 13.1394 13.1152 13.5645C12.7053 13.9895 12.1521 14.247 11.563 14.2869V15.5708L10.3359 15.5808Z" fill="#959595"/>
<path d="M10.9571 20.813C8.9314 20.813 6.95117 20.2123 5.26689 19.0869C3.5826 17.9615 2.26986 16.3619 1.49467 14.4905C0.719477 12.619 0.516717 10.5595 0.911906 8.57273C1.3071 6.58598 2.28252 4.76096 3.71488 3.32859C5.14725 1.89622 6.97227 0.920803 8.95903 0.525613C10.9458 0.130423 13.005 0.333428 14.8765 1.10862C16.748 1.88381 18.3475 3.19655 19.4729 4.88084C20.5983 6.56513 21.199 8.5451 21.199 10.5708C21.1961 13.2862 20.1162 15.8897 18.1961 17.8098C16.276 19.7299 13.6725 20.8101 10.9571 20.813ZM10.9571 1.29099C9.12146 1.29099 7.32708 1.83515 5.80082 2.85496C4.27457 3.87477 3.08507 5.32436 2.38261 7.02024C1.68015 8.71612 1.49618 10.5822 1.85429 12.3825C2.2124 14.1829 3.09636 15.8365 4.39433 17.1345C5.6923 18.4325 7.34594 19.3164 9.14628 19.6745C10.9466 20.0326 12.8129 19.8489 14.5088 19.1465C16.2047 18.444 17.6541 17.2545 18.6739 15.7282C19.6937 14.202 20.2381 12.4076 20.2381 10.572C20.2357 8.11116 19.2571 5.75162 17.5171 4.01145C15.7772 2.27128 13.4179 1.29266 10.9571 1.29002V1.29099Z" fill="#959595"/>
</svg>
