<svg width="16" height="19" viewBox="0 0 16 19" fill="none" xmlns="http://www.w3.org/2000/svg">
<path d="M11.9139 9.33521H6.68799C6.5819 9.33521 6.48017 9.37735 6.40515 9.45236C6.33014 9.52738 6.28796 9.62911 6.28796 9.7352C6.28796 9.84129 6.33014 9.94302 6.40515 10.018C6.48017 10.0931 6.5819 10.1352 6.68799 10.1352H11.915C12.0211 10.1352 12.1228 10.0931 12.1978 10.018C12.2728 9.94302 12.3149 9.84129 12.3149 9.7352C12.3149 9.62911 12.2728 9.52738 12.1978 9.45236C12.1228 9.37735 12.0211 9.33521 11.915 9.33521H11.9139Z" fill="#888888" stroke="#888888" stroke-width="0.1"/>
<path d="M11.9139 11.728H6.68799C6.5819 11.728 6.48017 11.7702 6.40515 11.8452C6.33014 11.9202 6.28796 12.0219 6.28796 12.128C6.28796 12.2341 6.33014 12.3358 6.40515 12.4109C6.48017 12.4859 6.5819 12.528 6.68799 12.528H11.915C12.0211 12.528 12.1228 12.4859 12.1978 12.4109C12.2728 12.3358 12.3149 12.2341 12.3149 12.128C12.3149 12.0219 12.2728 11.9202 12.1978 11.8452C12.1228 11.7702 12.0211 11.728 11.915 11.728H11.9139Z" fill="#888888" stroke="#888888" stroke-width="0.1"/>
<path d="M11.9139 14.1201H6.68799C6.5819 14.1201 6.48017 14.1623 6.40515 14.2373C6.33014 14.3123 6.28796 14.414 6.28796 14.5201C6.28796 14.6262 6.33014 14.7279 6.40515 14.8029C6.48017 14.878 6.5819 14.9201 6.68799 14.9201H11.915C12.0211 14.9201 12.1228 14.878 12.1978 14.8029C12.2728 14.7279 12.3149 14.6262 12.3149 14.5201C12.3149 14.414 12.2728 14.3123 12.1978 14.2373C12.1228 14.1623 12.0211 14.1201 11.915 14.1201H11.9139Z" fill="#888888" stroke="#888888" stroke-width="0.1"/>
<path d="M2.70001 0.724121V4.18112C2.14532 4.26021 1.62729 4.50448 1.21338 4.88213C0.799465 5.25977 0.508847 5.75328 0.379362 6.29842C0.249877 6.84355 0.287515 7.41504 0.487394 7.93848C0.687273 8.46191 1.04012 8.91304 1.5 9.23312V12.9231C1.50029 12.991 1.51784 13.0576 1.55099 13.1169C1.58415 13.1761 1.63183 13.2259 1.68954 13.2616C1.74725 13.2973 1.81311 13.3177 1.88089 13.321C1.94867 13.3242 2.01617 13.3101 2.07702 13.2801L2.69601 12.9711V18.0001H15.458V0.724121H2.70001ZM1.10501 6.94312C1.10479 6.50452 1.24926 6.0781 1.51602 5.72995C1.78278 5.3818 2.15692 5.13138 2.58047 5.01749C3.00402 4.90359 3.45334 4.9326 3.85873 5.10001C4.26412 5.26741 4.60297 5.56388 4.82275 5.94344C5.04253 6.32299 5.13095 6.76444 5.07434 7.19937C5.01772 7.6343 4.8192 8.03841 4.50958 8.34906C4.19996 8.65971 3.79652 8.85954 3.36178 8.91759C2.92704 8.97563 2.48529 8.88865 2.10501 8.67012C1.80227 8.49463 1.55086 8.24279 1.37591 7.93974C1.20096 7.63669 1.10858 7.29304 1.108 6.94312H1.10501ZM2.30502 12.2781V9.61713C2.82537 9.77228 3.37967 9.77228 3.90002 9.61713V12.2781L3.281 11.9691C3.22556 11.9415 3.16446 11.9271 3.10251 11.9271C3.04055 11.9271 2.97945 11.9415 2.92401 11.9691L2.30502 12.2781ZM3.505 17.2021V12.9701L4.12402 13.2791C4.18488 13.3091 4.25238 13.3232 4.32016 13.32C4.38794 13.3167 4.45376 13.2963 4.51147 13.2606C4.56918 13.2249 4.61687 13.1751 4.65002 13.1159C4.68318 13.0567 4.70073 12.99 4.70102 12.9221V9.23212C5.16089 8.91204 5.51374 8.46091 5.71362 7.93747C5.9135 7.41403 5.95114 6.84256 5.82165 6.29742C5.69217 5.75229 5.40155 5.25876 4.98764 4.88112C4.57373 4.50348 4.0557 4.25921 3.501 4.18011V1.48012H14.629C14.629 2.08012 14.664 2.38012 14.664 2.91112V17.1971L3.505 17.2021Z" fill="#959595" stroke="#959595" stroke-width="0.2"/>
</svg>
