<svg width="18" height="19" viewBox="0 0 18 19" fill="none" xmlns="http://www.w3.org/2000/svg">
<path d="M6.78003 18.3185C6.7304 18.3186 6.68121 18.3093 6.63538 18.2902C6.58954 18.2712 6.54788 18.2425 6.51294 18.2072L0.635012 12.3312C0.564122 12.26 0.524143 12.1641 0.523928 12.0637C0.523761 12.0139 0.53356 11.9642 0.552614 11.9182C0.571669 11.8721 0.599685 11.8302 0.635012 11.7951L11.322 1.10858C11.3584 1.07111 11.4024 1.04244 11.4511 1.02362C11.4997 1.00481 11.5519 0.995912 11.604 0.99921L15.078 1.13788C15.7769 1.14158 16.4458 1.42149 16.9385 1.91718C17.4312 2.41287 17.7076 3.08352 17.707 3.78241L17.844 7.24042C17.8459 7.2923 17.8372 7.34442 17.8182 7.39276C17.7993 7.44111 17.7707 7.4849 17.734 7.52167L7.04798 18.2072C7.01288 18.2425 6.97118 18.2712 6.92517 18.2902C6.87917 18.3093 6.82983 18.3187 6.78003 18.3185ZM1.43604 12.0637L6.78003 17.4064L17.08 7.10663L16.95 3.79804C16.9507 3.54931 16.9026 3.30254 16.8081 3.07245C16.7137 2.84236 16.5749 2.63267 16.3995 2.45624C16.2242 2.27981 16.0159 2.14004 15.7864 2.04413C15.5569 1.94822 15.3107 1.89843 15.062 1.89765L11.7369 1.76679L1.43604 12.0637Z" fill="#888888" stroke="#959595" stroke-width="0.3"/>
<path d="M14.528 6.20574C14.091 6.20561 13.6675 6.05339 13.3298 5.77605C12.992 5.49871 12.7609 5.1129 12.6757 4.68425C12.5906 4.2556 12.6567 3.81083 12.8629 3.42546C13.069 3.0401 13.4023 2.73811 13.8061 2.57097C14.2099 2.40383 14.6592 2.38249 15.0773 2.50945C15.4955 2.63641 15.8567 2.90383 16.0994 3.26726C16.3421 3.63069 16.4513 4.06673 16.4084 4.50164C16.3655 4.93655 16.1732 5.34405 15.8641 5.653C15.6888 5.82871 15.4806 5.96728 15.2513 6.06218C15.022 6.15709 14.7762 6.20619 14.528 6.20574ZM14.528 3.1823C14.3041 3.18311 14.0854 3.25083 13.8995 3.37566C13.7135 3.50049 13.5687 3.67748 13.4832 3.88445C13.3977 4.09142 13.3753 4.31908 13.4189 4.53875C13.4624 4.75841 13.5699 4.96017 13.728 5.11882C13.9439 5.32379 14.2303 5.43816 14.528 5.43816C14.8257 5.43816 15.1121 5.32379 15.3281 5.11882C15.4861 4.96017 15.5936 4.75841 15.6371 4.53875C15.6807 4.31908 15.6583 4.09142 15.5728 3.88445C15.4873 3.67748 15.3425 3.50049 15.1566 3.37566C14.9706 3.25083 14.752 3.18311 14.528 3.1823Z" fill="#888888" stroke="#959595" stroke-width="0.3"/>
</svg>
