<svg width="14" height="15" viewBox="0 0 14 15" fill="none" xmlns="http://www.w3.org/2000/svg">
<path d="M2.12695 4.98242C2.12695 5.97852 2.23535 6.72559 2.45215 7.22363C2.66895 7.72168 3.02051 7.9707 3.50684 7.9707C4.46777 7.9707 4.94824 6.97461 4.94824 4.98242C4.94824 3.00195 4.46777 2.01172 3.50684 2.01172C3.02051 2.01172 2.66895 2.25781 2.45215 2.75C2.23535 3.24219 2.12695 3.98633 2.12695 4.98242ZM6.15234 4.98242C6.15234 6.31836 5.92676 7.3291 5.47559 8.01465C5.03027 8.69434 4.37402 9.03418 3.50684 9.03418C2.68652 9.03418 2.04785 8.68555 1.59082 7.98828C1.13965 7.29102 0.914062 6.28906 0.914062 4.98242C0.914062 3.65234 1.13086 2.65039 1.56445 1.97656C2.00391 1.30273 2.65137 0.96582 3.50684 0.96582C4.35645 0.96582 5.00977 1.31445 5.4668 2.01172C5.92383 2.70898 6.15234 3.69922 6.15234 4.98242ZM9.86133 10.1328C9.86133 11.1348 9.96973 11.8848 10.1865 12.3828C10.4033 12.875 10.7578 13.1211 11.25 13.1211C11.7422 13.1211 12.1055 12.8779 12.3398 12.3916C12.5742 11.8994 12.6914 11.1465 12.6914 10.1328C12.6914 9.13086 12.5742 8.38965 12.3398 7.90918C12.1055 7.42285 11.7422 7.17969 11.25 7.17969C10.7578 7.17969 10.4033 7.42285 10.1865 7.90918C9.96973 8.38965 9.86133 9.13086 9.86133 10.1328ZM13.8955 10.1328C13.8955 11.4629 13.6699 12.4707 13.2188 13.1562C12.7734 13.8359 12.1172 14.1758 11.25 14.1758C10.418 14.1758 9.77637 13.8271 9.3252 13.1299C8.87988 12.4326 8.65723 11.4336 8.65723 10.1328C8.65723 8.80273 8.87402 7.80078 9.30762 7.12695C9.74707 6.45312 10.3945 6.11621 11.25 6.11621C12.082 6.11621 12.7295 6.46191 13.1924 7.15332C13.6611 7.83887 13.8955 8.83203 13.8955 10.1328ZM11.6279 1.15039L4.5 14H3.20801L10.3359 1.15039H11.6279Z" fill="#959595"/>
</svg>
