<svg width="17" height="15" viewBox="0 0 17 15" fill="none" xmlns="http://www.w3.org/2000/svg">
<path d="M4 1V3" stroke="#959595" stroke-linecap="round" stroke-linejoin="round"/>
<path d="M13 1V3" stroke="#959595" stroke-linecap="round" stroke-linejoin="round"/>
<path d="M1.33496 5.78101H16.091" stroke="#959595" stroke-linecap="round" stroke-linejoin="round"/>
<path d="M14.414 1.75586V2.76184C14.3637 3.0815 14.2009 3.37273 13.955 3.58301C13.709 3.79329 13.3961 3.90881 13.0725 3.90881C12.7489 3.90881 12.436 3.79329 12.19 3.58301C11.9441 3.37273 11.7813 3.0815 11.731 2.76184V1.75586H5.69501V2.76184C5.64472 3.0815 5.48191 3.37273 5.23596 3.58301C4.99001 3.79329 4.6771 3.90881 4.35352 3.90881C4.02993 3.90881 3.71696 3.79329 3.47101 3.58301C3.22506 3.37273 3.06231 3.0815 3.01202 2.76184V1.75586H1V14.4988H16.426V1.75586H14.414Z" stroke="#959595" stroke-linecap="round" stroke-linejoin="round"/>
</svg>
